<svg width="24" height="24" viewBox="0 0 24 24" fill="none" xmlns="http://www.w3.org/2000/svg">
<path fill-rule="evenodd" clip-rule="evenodd" d="M22.0993 6.42899C19.9733 8.55499 14.9833 13.544 13.7663 14.757C13.5057 15.0172 13.1956 15.2226 12.8543 15.361C11.8783 15.766 9.49727 16.7 8.79727 16.747C8.59092 16.7609 8.384 16.7304 8.19038 16.6577C7.99676 16.5851 7.82093 16.4718 7.6747 16.3256C7.52846 16.1793 7.41519 16.0035 7.34251 15.8099C7.26982 15.6163 7.23939 15.4093 7.25327 15.203C7.30027 14.503 8.23427 12.124 8.63227 11.152C8.77127 10.807 8.97827 10.494 9.24127 10.232L17.5713 1.90099C17.9749 1.49808 18.5219 1.27179 19.0923 1.27179C19.6626 1.27179 20.2096 1.49808 20.6133 1.90099L22.0993 3.38699C22.5022 3.79064 22.7285 4.33766 22.7285 4.90799C22.7285 5.47831 22.5022 6.02534 22.0993 6.42899ZM8.75627 15.244C9.44027 15.158 11.4393 14.324 12.2793 13.975C12.4389 13.9122 12.5839 13.8173 12.7053 13.696L12.7063 13.695C15.4855 10.9212 18.2628 8.14556 21.0383 5.36799C21.0987 5.30762 21.1467 5.23591 21.1794 5.15698C21.2122 5.07805 21.229 4.99344 21.229 4.90799C21.229 4.82254 21.2122 4.73793 21.1794 4.659C21.1467 4.58006 21.0987 4.50836 21.0383 4.44799L19.5523 2.96199C19.4919 2.90152 19.4202 2.85354 19.3413 2.82081C19.2623 2.78808 19.1777 2.77123 19.0923 2.77123C19.0068 2.77123 18.9222 2.78808 18.8433 2.82081C18.7643 2.85354 18.6926 2.90152 18.6323 2.96199L10.3013 11.293C10.1813 11.4123 10.087 11.5549 10.0243 11.712L10.0223 11.716C9.67727 12.558 8.84227 14.559 8.75627 15.244Z" fill="url(#paint0_linear_19697_1610)"/>
<path fill-rule="evenodd" clip-rule="evenodd" d="M20.1175 7.349C20.1872 7.41867 20.2425 7.50137 20.2802 7.5924C20.3179 7.68342 20.3373 7.78098 20.3373 7.8795C20.3373 7.97803 20.3179 8.07558 20.2802 8.16661C20.2425 8.25763 20.1872 8.34034 20.1175 8.41C20.0479 8.47967 19.9652 8.53493 19.8741 8.57263C19.7831 8.61034 19.6856 8.62974 19.587 8.62974C19.4885 8.62974 19.391 8.61034 19.2999 8.57263C19.2089 8.53493 19.1262 8.47967 19.0565 8.41L15.5895 4.943C15.4488 4.8023 15.3698 4.61148 15.3698 4.4125C15.3698 4.21353 15.4488 4.0227 15.5895 3.882C15.7302 3.7413 15.9211 3.66226 16.12 3.66226C16.319 3.66226 16.5098 3.7413 16.6505 3.882L20.1175 7.349ZM13.9965 13.47C14.0661 13.5396 14.1213 13.6222 14.159 13.7132C14.1967 13.8041 14.2161 13.9016 14.2161 14C14.2161 14.0984 14.1967 14.1959 14.159 14.2868C14.1213 14.3778 14.0661 14.4604 13.9965 14.53C13.9269 14.5996 13.8443 14.6548 13.7534 14.6925C13.6624 14.7301 13.565 14.7495 13.4665 14.7495C13.3681 14.7495 13.2706 14.7301 13.1797 14.6925C13.0888 14.6548 13.0061 14.5996 12.9365 14.53L9.46953 11.063C9.39993 10.9934 9.34472 10.9108 9.30706 10.8198C9.26939 10.7289 9.25 10.6314 9.25 10.533C9.25 10.4346 9.26939 10.3371 9.30706 10.2462C9.34472 10.1552 9.39993 10.0726 9.46953 10.003C9.53913 9.9334 9.62176 9.87819 9.7127 9.84052C9.80364 9.80286 9.9011 9.78347 9.99953 9.78347C10.098 9.78347 10.1954 9.80286 10.2864 9.84052C10.3773 9.87819 10.4599 9.9334 10.5295 10.003L13.9965 13.47Z" fill="url(#paint1_linear_19697_1610)"/>
<path fill-rule="evenodd" clip-rule="evenodd" d="M8.5 3.25C8.69891 3.25 8.88968 3.32902 9.03033 3.46967C9.17098 3.61032 9.25 3.80109 9.25 4C9.25 4.19891 9.17098 4.38968 9.03033 4.53033C8.88968 4.67098 8.69891 4.75 8.5 4.75H5C4.40326 4.75 3.83097 4.98705 3.40901 5.40901C2.98705 5.83097 2.75 6.40326 2.75 7V19C2.75 19.5967 2.98705 20.169 3.40901 20.591C3.83097 21.0129 4.40326 21.25 5 21.25H18C18.5967 21.25 19.169 21.0129 19.591 20.591C20.0129 20.169 20.25 19.5967 20.25 19V15.5C20.25 15.3011 20.329 15.1103 20.4697 14.9697C20.6103 14.829 20.8011 14.75 21 14.75C21.1989 14.75 21.3897 14.829 21.5303 14.9697C21.671 15.1103 21.75 15.3011 21.75 15.5V19C21.7495 19.9944 21.3542 20.9479 20.6511 21.6511C19.9479 22.3542 18.9944 22.7495 18 22.75H5C4.0056 22.7495 3.05208 22.3542 2.34893 21.6511C1.64579 20.9479 1.25053 19.9944 1.25 19V7C1.25 6.00544 1.64509 5.05161 2.34835 4.34835C3.05161 3.64509 4.00544 3.25 5 3.25H8.5Z" fill="url(#paint2_linear_19697_1610)"/>
<defs>
<linearGradient id="paint0_linear_19697_1610" x1="7.25" y1="9.01102" x2="22.7285" y2="9.01102" gradientUnits="userSpaceOnUse">
<stop stop-color="#6DA015"/>
<stop offset="1" stop-color="#46C0A2"/>
</linearGradient>
<linearGradient id="paint1_linear_19697_1610" x1="9.25" y1="9.2059" x2="20.3373" y2="9.2059" gradientUnits="userSpaceOnUse">
<stop stop-color="#6DA015"/>
<stop offset="1" stop-color="#46C0A2"/>
</linearGradient>
<linearGradient id="paint2_linear_19697_1610" x1="1.25" y1="13" x2="21.75" y2="13" gradientUnits="userSpaceOnUse">
<stop stop-color="#6DA015"/>
<stop offset="1" stop-color="#46C0A2"/>
</linearGradient>
</defs>
</svg>
