<svg width="24" height="24" viewBox="0 0 24 24" fill="none" xmlns="http://www.w3.org/2000/svg">
<path d="M16.62 0H16.7907C16.9277 1.69253 16.2817 2.95719 15.4966 3.87301C14.7262 4.78251 13.6713 5.6646 11.965 5.53076C11.8512 3.86247 12.4983 2.69161 13.2824 1.77789C14.0096 0.92636 15.3427 0.168621 16.62 0ZM21.7851 17.6167V17.6641C21.3056 19.1163 20.6216 20.361 19.7869 21.516C19.025 22.5646 18.0912 23.9758 16.424 23.9758C14.9833 23.9758 14.0264 23.0494 12.5499 23.0241C10.9881 22.9988 10.1292 23.7987 8.70116 24H8.21427C7.16566 23.8482 6.3194 23.0178 5.70288 22.2695C3.88493 20.0585 2.48011 17.2025 2.21875 13.5476V12.4737C2.32941 9.85799 3.60039 7.73126 5.28976 6.70057C6.18134 6.15255 7.407 5.68568 8.77177 5.89435C9.35668 5.98498 9.95423 6.18522 10.478 6.38335C10.9744 6.5741 11.5951 6.9124 12.1832 6.89448C12.5815 6.88289 12.9778 6.67527 13.3793 6.52878C14.5555 6.10407 15.7084 5.61718 17.2281 5.84587C19.0545 6.12199 20.3507 6.93347 21.1517 8.18548C19.6067 9.16875 18.3853 10.6505 18.5939 13.1809C18.7794 15.4794 20.1157 16.8241 21.7851 17.6167Z" fill="#1C1D20"/>
</svg>
