<svg width="24" height="24" viewBox="0 0 24 24" fill="none" xmlns="http://www.w3.org/2000/svg">
<path d="M16.5 12C16.5001 12.0985 16.4808 12.1961 16.4431 12.2871C16.4054 12.3781 16.35 12.4607 16.2803 12.5303L8.7803 20.0303C8.48723 20.3233 8.01267 20.3233 7.7198 20.0303C7.42692 19.7372 7.42673 19.2626 7.7198 18.9698L14.6895 12L7.7198 5.03026C7.42673 4.7372 7.42673 4.26264 7.7198 3.96976C8.01286 3.67689 8.48742 3.6767 8.7803 3.96976L16.2803 11.4698C16.35 11.5393 16.4054 11.622 16.4431 11.713C16.4808 11.804 16.5001 11.9015 16.5 12Z" fill="url(#paint0_linear_19697_1702)"/>
<defs>
<linearGradient id="paint0_linear_19697_1702" x1="12" y1="20.2501" x2="12" y2="3.75004" gradientUnits="userSpaceOnUse">
<stop stop-color="#6DA015"/>
<stop offset="1" stop-color="#46C0A2"/>
</linearGradient>
</defs>
</svg>
