<svg width="24" height="24" viewBox="0 0 24 24" fill="none" xmlns="http://www.w3.org/2000/svg">
<path d="M15.4449 4.19742H4.28782C3.24092 4.19742 2.39062 5.04772 2.39062 6.09461V22.1028C2.39062 23.1497 3.24092 24 4.28782 24H15.4449C16.4918 24 17.3421 23.1497 17.3421 22.1028V6.09461C17.3372 5.04772 16.4869 4.19742 15.4449 4.19742ZM16.0101 22.0979C16.0101 22.4124 15.7545 22.668 15.44 22.668H4.2829C3.96834 22.668 3.71276 22.4124 3.71276 22.0979V6.09461C3.71276 5.78005 3.96834 5.52447 4.2829 5.52447H15.44C15.7545 5.52447 16.0101 5.78005 16.0101 6.09461V22.0979Z" fill="url(#paint0_linear_19697_1470)"/>
<path d="M19.7105 0H8.55344C7.50655 0 6.65625 0.850297 6.65625 1.89719C6.65625 2.26582 6.95115 2.56072 7.31978 2.56072C7.6884 2.56072 7.9833 2.26582 7.9833 1.89719C7.9833 1.58263 8.23888 1.32705 8.55344 1.32705H19.7105C20.0251 1.32705 20.2807 1.58263 20.2807 1.89719V17.9054C20.2807 18.2199 20.0251 18.4755 19.7105 18.4755C19.3419 18.4755 19.047 18.7704 19.047 19.1391C19.047 19.5077 19.3419 19.8026 19.7105 19.8026C20.7574 19.8026 21.6077 18.9523 21.6077 17.9054V1.89719C21.6077 0.850297 20.7574 0 19.7105 0Z" fill="url(#paint1_linear_19697_1470)"/>
<defs>
<linearGradient id="paint0_linear_19697_1470" x1="2.39062" y1="14.0987" x2="17.3421" y2="14.0987" gradientUnits="userSpaceOnUse">
<stop stop-color="#6DA015"/>
<stop offset="1" stop-color="#46C0A2"/>
</linearGradient>
<linearGradient id="paint1_linear_19697_1470" x1="6.65625" y1="9.90129" x2="21.6077" y2="9.90129" gradientUnits="userSpaceOnUse">
<stop stop-color="#6DA015"/>
<stop offset="1" stop-color="#46C0A2"/>
</linearGradient>
</defs>
</svg>
