<svg width="16" height="17" viewBox="0 0 16 17" fill="none" xmlns="http://www.w3.org/2000/svg">
<g clip-path="url(#clip0_19697_790)">
<path d="M15.6654 7.77679C15.852 7.77679 15.9987 7.92346 15.9987 8.11013C15.9987 8.29679 15.852 8.44346 15.6654 8.44346H15.332V7.77679H15.6654ZM8.33203 7.77679H15.332V8.44346H8.33203V7.77679Z" fill="#7B7B7B"/>
<path d="M14.3333 16.1098H8C8.18667 16.1098 8.33333 15.9631 8.33333 15.7765V15.4431H14.3333C14.8867 15.4431 15.3333 14.9965 15.3333 14.4431V8.44314H15.6667C15.8533 8.44314 16 8.29647 16 8.1098V14.4431C16 14.662 15.9569 14.8787 15.8731 15.0809C15.7894 15.2832 15.6666 15.4669 15.5118 15.6216C15.3571 15.7764 15.1733 15.8992 14.9711 15.9829C14.7689 16.0667 14.5522 16.1098 14.3333 16.1098ZM16 1.77647V8.1098C16 7.92314 15.8533 7.77647 15.6667 7.77647H15.3333V1.77647C15.3333 1.22314 14.8867 0.776469 14.3333 0.776469H8.33333V0.443136C8.33333 0.256469 8.18667 0.109802 8 0.109802H14.3333C14.5522 0.109802 14.7689 0.152912 14.9711 0.23667C15.1733 0.320428 15.3571 0.443193 15.5118 0.597958C15.6666 0.752722 15.7894 0.936454 15.8731 1.13866C15.9569 1.34087 16 1.5576 16 1.77647Z" fill="#7B7B7B"/>
<path d="M13.3346 4.1098C13.5213 4.1098 13.668 4.25647 13.668 4.44314C13.668 4.6298 13.5213 4.77647 13.3346 4.77647H10.668C10.4813 4.77647 10.3346 4.6298 10.3346 4.44314C10.3346 4.25647 10.4813 4.1098 10.668 4.1098H13.3346ZM13.3346 10.7765C13.5213 10.7765 13.668 10.9231 13.668 11.1098C13.668 11.2965 13.5213 11.4431 13.3346 11.4431H10.668C10.4813 11.4431 10.3346 11.2965 10.3346 11.1098C10.3346 10.9231 10.4813 10.7765 10.668 10.7765H13.3346ZM13.3346 12.7765C13.5213 12.7765 13.668 12.9231 13.668 13.1098C13.668 13.2965 13.5213 13.4431 13.3346 13.4431H10.668C10.4813 13.4431 10.3346 13.2965 10.3346 13.1098C10.3346 12.9231 10.4813 12.7765 10.668 12.7765H13.3346ZM8.33464 15.4431V15.7765C8.33464 15.9631 8.18797 16.1098 8.0013 16.1098C7.81464 16.1098 7.66797 15.9631 7.66797 15.7765V15.4431H8.33464ZM7.66797 8.44314H8.33464V15.4431H7.66797V8.44314ZM7.66797 7.77647H8.33464V8.44314H7.66797V7.77647ZM7.66797 0.776469H8.33464V7.77647H7.66797V0.776469ZM8.33464 0.443136V0.776469H7.66797V0.443136C7.66797 0.256469 7.81464 0.109802 8.0013 0.109802C8.18797 0.109802 8.33464 0.256469 8.33464 0.443136ZM0.667969 7.77647H7.66797V8.44314H0.667969V7.77647ZM5.33464 4.1098C5.5213 4.1098 5.66797 4.25647 5.66797 4.44314C5.66797 4.6298 5.5213 4.77647 5.33464 4.77647H4.33464V4.1098H5.33464ZM5.23464 12.8765C5.36797 13.0031 5.36797 13.2165 5.23464 13.3431C5.17464 13.4098 5.08797 13.4431 5.0013 13.4431C4.91464 13.4431 4.82797 13.4098 4.76797 13.3431L4.0013 12.5765L4.46797 12.1098L5.23464 12.8765ZM4.76797 10.8765C4.89464 10.7431 5.10797 10.7431 5.23464 10.8765C5.36797 11.0031 5.36797 11.2165 5.23464 11.3431L4.46797 12.1098L4.0013 11.6431L4.76797 10.8765ZM3.53264 12.1091L3.9993 11.6425L4.46597 12.1091L3.9993 12.5758L3.53264 12.1091ZM4.33464 4.77647V5.77647C4.33464 5.96314 4.18797 6.1098 4.0013 6.1098C3.81464 6.1098 3.66797 5.96314 3.66797 5.77647V4.77647H4.33464ZM3.66797 4.1098H4.33464V4.77647H3.66797V4.1098ZM4.33464 3.1098V4.1098H3.66797V3.1098C3.66797 2.92314 3.81464 2.77647 4.0013 2.77647C4.18797 2.77647 4.33464 2.92314 4.33464 3.1098Z" fill="#7B7B7B"/>
<path d="M4 11.6431L3.53333 12.1098L2.76667 11.3431C2.63333 11.2165 2.63333 11.0031 2.76667 10.8765C2.89333 10.7431 3.10667 10.7431 3.23333 10.8765L4 11.6431ZM3.66667 4.1098V4.77647H2.66667C2.48 4.77647 2.33333 4.6298 2.33333 4.44314C2.33333 4.25647 2.48 4.1098 2.66667 4.1098H3.66667ZM3.23333 13.3431C3.17333 13.4098 3.08667 13.4431 3 13.4431C2.91333 13.4431 2.82667 13.4098 2.76667 13.3431C2.63333 13.2165 2.63333 13.0031 2.76667 12.8765L3.53333 12.1098L4 12.5765L3.23333 13.3431ZM0.666667 7.77647V8.44314H0.333333C0.146667 8.44314 0 8.29647 0 8.1098C0 7.92314 0.146667 7.77647 0.333333 7.77647H0.666667Z" fill="#7B7B7B"/>
<path d="M0 1.77647C0 1.33444 0.175595 0.910518 0.488155 0.597958C0.800716 0.285397 1.22464 0.109802 1.66667 0.109802L8 0.109802C7.81333 0.109802 7.66667 0.256469 7.66667 0.443136V0.776469H1.66667C1.11333 0.776469 0.666667 1.22314 0.666667 1.77647V7.77647H0.333333C0.146667 7.77647 0 7.92314 0 8.1098V1.77647ZM0.666667 14.4431C0.666667 14.9965 1.11333 15.4431 1.66667 15.4431H7.66667V15.7765C7.66667 15.9631 7.81333 16.1098 8 16.1098H1.66667C1.4478 16.1098 1.23107 16.0667 1.02886 15.9829C0.826652 15.8992 0.64292 15.7764 0.488155 15.6216C0.333391 15.4669 0.210625 15.2832 0.126867 15.0809C0.0431096 14.8787 0 14.662 0 14.4431L0 8.1098C0 8.29647 0.146667 8.44314 0.333333 8.44314H0.666667V14.4431Z" fill="#7B7B7B"/>
</g>
<defs>
<clipPath id="clip0_19697_790">
<rect width="16" height="16" fill="white" transform="translate(0 0.109802)"/>
</clipPath>
</defs>
</svg>
