<svg width="16" height="17" viewBox="0 0 16 17" fill="none" xmlns="http://www.w3.org/2000/svg">
<path d="M10.5 7.6098H8.5V5.6098C8.5 5.47719 8.44732 5.35002 8.35355 5.25625C8.25979 5.16248 8.13261 5.1098 8 5.1098C7.86739 5.1098 7.74021 5.16248 7.64645 5.25625C7.55268 5.35002 7.5 5.47719 7.5 5.6098V7.6098H5.5C5.36739 7.6098 5.24021 7.66248 5.14645 7.75625C5.05268 7.85002 5 7.97719 5 8.1098C5 8.24241 5.05268 8.36959 5.14645 8.46336C5.24021 8.55712 5.36739 8.6098 5.5 8.6098H7.5V10.6098C7.5 10.7424 7.55268 10.8696 7.64645 10.9634C7.74021 11.0571 7.86739 11.1098 8 11.1098C8.13261 11.1098 8.25979 11.0571 8.35355 10.9634C8.44732 10.8696 8.5 10.7424 8.5 10.6098V8.6098H10.5C10.6326 8.6098 10.7598 8.55712 10.8536 8.46336C10.9473 8.36959 11 8.24241 11 8.1098C11 7.97719 10.9473 7.85002 10.8536 7.75625C10.7598 7.66248 10.6326 7.6098 10.5 7.6098Z" fill="#7B7B7B"/>
<path d="M11.5 1.1098H4.5C2.57 1.1098 1 2.6798 1 4.6098V11.6098C1 13.5398 2.57 15.1098 4.5 15.1098H11.5C13.43 15.1098 15 13.5398 15 11.6098V4.6098C15 2.6798 13.43 1.1098 11.5 1.1098ZM14 11.6098C14 12.9883 12.8785 14.1098 11.5 14.1098H4.5C3.1215 14.1098 2 12.9883 2 11.6098V4.6098C2 3.2313 3.1215 2.1098 4.5 2.1098H11.5C12.8785 2.1098 14 3.2313 14 4.6098V11.6098Z" fill="#7B7B7B"/>
</svg>
