<svg width="16" height="16" viewBox="0 0 16 16" fill="none" xmlns="http://www.w3.org/2000/svg">
<path d="M13.3329 16C13.6158 16 13.8872 15.8876 14.0872 15.6876C14.2872 15.4875 14.3996 15.2162 14.3996 14.9333V4.3312C14.3989 4.04847 14.2865 3.77745 14.0871 3.57707L10.8225 0.312533C10.6222 0.113073 10.3511 0.000758453 10.0684 0L2.66628 0C2.38338 0 2.11207 0.112381 1.91203 0.312419C1.71199 0.512458 1.59961 0.783769 1.59961 1.06667V14.9333C1.59961 15.2162 1.71199 15.4875 1.91203 15.6876C2.11207 15.8876 2.38338 16 2.66628 16H13.3329ZM13.4892 3.73333H11.1996C11.0582 3.73333 10.9225 3.67714 10.8225 3.57712C10.7225 3.4771 10.6663 3.34145 10.6663 3.2V0.9104L13.4892 3.73333ZM2.13294 14.9333V1.06667C2.13294 0.925218 2.18913 0.789562 2.28915 0.689543C2.38917 0.589524 2.52483 0.533333 2.66628 0.533333H10.0684C10.09 0.534144 10.1116 0.536282 10.1329 0.539733V3.2C10.1329 3.4829 10.2453 3.75421 10.4454 3.95425C10.6454 4.15429 10.9167 4.26667 11.1996 4.26667H13.8599C13.8633 4.28803 13.8655 4.30958 13.8663 4.3312V14.9333C13.8663 15.0748 13.8101 15.2104 13.7101 15.3105C13.61 15.4105 13.4744 15.4667 13.3329 15.4667H2.66628C2.52483 15.4667 2.38917 15.4105 2.28915 15.3105C2.18913 15.2104 2.13294 15.0748 2.13294 14.9333Z" fill="url(#paint0_linear_19697_1179)"/>
<path d="M3.99909 6.93336H11.9991C12.0698 6.93336 12.1376 6.90526 12.1877 6.85525C12.2377 6.80524 12.2658 6.73742 12.2658 6.66669C12.2658 6.59597 12.2377 6.52814 12.1877 6.47813C12.1376 6.42812 12.0698 6.40002 11.9991 6.40002H3.99909C3.92836 6.40002 3.86054 6.42812 3.81053 6.47813C3.76052 6.52814 3.73242 6.59597 3.73242 6.66669C3.73242 6.73742 3.76052 6.80524 3.81053 6.85525C3.86054 6.90526 3.92836 6.93336 3.99909 6.93336ZM3.99909 9.06669H11.9991C12.0698 9.06669 12.1376 9.0386 12.1877 8.98859C12.2377 8.93858 12.2658 8.87075 12.2658 8.80002C12.2658 8.7293 12.2377 8.66147 12.1877 8.61146C12.1376 8.56145 12.0698 8.53336 11.9991 8.53336H3.99909C3.92836 8.53336 3.86054 8.56145 3.81053 8.61146C3.76052 8.66147 3.73242 8.7293 3.73242 8.80002C3.73242 8.87075 3.76052 8.93858 3.81053 8.98859C3.86054 9.0386 3.92836 9.06669 3.99909 9.06669ZM3.99909 11.2H11.9991C12.0698 11.2 12.1376 11.1719 12.1877 11.1219C12.2377 11.0719 12.2658 11.0041 12.2658 10.9334C12.2658 10.8626 12.2377 10.7948 12.1877 10.7448C12.1376 10.6948 12.0698 10.6667 11.9991 10.6667H3.99909C3.92836 10.6667 3.86054 10.6948 3.81053 10.7448C3.76052 10.7948 3.73242 10.8626 3.73242 10.9334C3.73242 11.0041 3.76052 11.0719 3.81053 11.1219C3.86054 11.1719 3.92836 11.2 3.99909 11.2ZM3.99909 13.3334H9.33242C9.40315 13.3334 9.47097 13.3053 9.52098 13.2553C9.57099 13.2052 9.59909 13.1374 9.59909 13.0667C9.59909 12.996 9.57099 12.9281 9.52098 12.8781C9.47097 12.8281 9.40315 12.8 9.33242 12.8H3.99909C3.92836 12.8 3.86054 12.8281 3.81053 12.8781C3.76052 12.9281 3.73242 12.996 3.73242 13.0667C3.73242 13.1374 3.76052 13.2052 3.81053 13.2553C3.86054 13.3053 3.92836 13.3334 3.99909 13.3334Z" fill="url(#paint1_linear_19697_1179)"/>
<defs>
<linearGradient id="paint0_linear_19697_1179" x1="1.59961" y1="8" x2="14.3996" y2="8" gradientUnits="userSpaceOnUse">
<stop stop-color="#6DA015"/>
<stop offset="1" stop-color="#46C0A2"/>
</linearGradient>
<linearGradient id="paint1_linear_19697_1179" x1="3.73242" y1="9.86669" x2="12.2658" y2="9.86669" gradientUnits="userSpaceOnUse">
<stop stop-color="#6DA015"/>
<stop offset="1" stop-color="#46C0A2"/>
</linearGradient>
</defs>
</svg>
