<svg width="32" height="32" viewBox="0 0 32 32" fill="none" xmlns="http://www.w3.org/2000/svg">
<g clip-path="url(#clip0_19697_849)">
<path d="M7.3288 6.34568C12.0532 2.07214 19.1235 2.00679 23.9133 5.90787L20.1167 6.05163C19.6267 6.07123 19.2477 6.47637 19.2673 6.96645C19.2869 7.44347 19.6789 7.81593 20.1494 7.81593H20.1821L26.0108 7.6003C26.4879 7.58069 26.8603 7.19516 26.8603 6.71814V6.61359L26.6447 0.850193C26.6251 0.360108 26.2134 -0.0188912 25.7299 0.00071215C25.2398 0.0203156 24.8608 0.425452 24.8804 0.915537L25.0176 4.5291C22.6456 2.58836 19.7247 1.46443 16.6012 1.30761C12.7328 1.11157 9.01469 2.43807 6.14606 5.03879C2.19924 8.61314 0.526418 14.0498 1.78104 19.2251C1.87905 19.6302 2.23845 19.8982 2.63705 19.8982C2.70893 19.8982 2.77427 19.8916 2.84615 19.872C3.31664 19.7544 3.61069 19.2774 3.49307 18.8069C2.39528 14.2589 3.859 9.48222 7.3288 6.34568ZM30.219 12.7756C30.1014 12.3051 29.6244 12.0111 29.1539 12.1287C28.6834 12.2463 28.3894 12.7233 28.507 13.1938C29.6113 17.7418 28.1411 22.5185 24.6713 25.655C22.2339 27.8571 19.1758 28.9419 16.1307 28.9419C13.2229 28.9419 10.3216 27.9552 7.98224 26.0079L11.8245 25.6616C12.3081 25.6158 12.6675 25.1911 12.6217 24.701C12.576 24.2109 12.1512 23.858 11.6611 23.9038L5.85201 24.4265C5.36846 24.4723 5.00906 24.897 5.0548 25.3871L5.57756 31.1963C5.61677 31.6537 6.0023 32 6.45318 32C6.47932 32 6.50545 32 6.53159 31.9935C7.01514 31.9477 7.37454 31.523 7.3288 31.0329L7.01514 27.4977C9.38715 29.4189 12.295 30.5363 15.3989 30.6931C15.6472 30.7062 15.8955 30.7127 16.1373 30.7127C19.7377 30.7127 23.1618 29.3927 25.854 26.9619C29.8008 23.3876 31.4736 17.9574 30.219 12.7756Z" fill="url(#paint0_linear_19697_849)"/>
</g>
<defs>
<linearGradient id="paint0_linear_19697_849" x1="1.37109" y1="16" x2="30.629" y2="16" gradientUnits="userSpaceOnUse">
<stop stop-color="#6DA015"/>
<stop offset="1" stop-color="#46C0A2"/>
</linearGradient>
<clipPath id="clip0_19697_849">
<rect width="32" height="32" fill="white"/>
</clipPath>
</defs>
</svg>
