<svg width="32" height="32" viewBox="0 0 32 32" fill="none" xmlns="http://www.w3.org/2000/svg">
<path d="M29 24V23.0001C29 22.4478 28.5524 21.9999 28.0001 21.9999V21C27.9995 20.8252 27.953 20.6537 27.8652 20.5026C27.7774 20.3515 27.6514 20.2261 27.4999 20.139V12.8611C27.6514 12.774 27.7774 12.6486 27.8652 12.4975C27.953 12.3463 27.9995 12.1748 28.0001 12V11.0001C28.5523 11.0001 29 10.5524 29 10.0001V8.49993C29 7.9477 28.5524 7.5 28.0001 7.5H26.425C24.8595 3.06797 20.2256 0 15 0C9.77437 0 5.1405 3.06797 3.57497 7.5H1.99987C1.44764 7.5 0.999937 7.94765 0.999937 8.49993V10.0001C0.999937 10.5524 1.44759 11.0001 1.99987 11.0001V12C2.00047 12.1748 2.04701 12.3463 2.1348 12.4975C2.2226 12.6486 2.34858 12.774 2.50012 12.8611V20.139C2.34858 20.2261 2.22258 20.3515 2.13478 20.5026C2.04698 20.6537 2.00046 20.8252 1.99987 21V21.9999C1.44764 21.9999 0.999937 22.4478 0.999937 23.0001V24C0.447703 24 0 24.4479 0 25.0001V29C0 29.5523 0.447656 30 0.999937 30H29C29.5523 30 30 29.5523 30 29V25.0001C30 24.4479 29.5523 24 29 24ZM21.9999 19.9999V12.8611C22.1515 12.774 22.2774 12.6486 22.3652 12.4975C22.453 12.3463 22.4995 12.1748 22.5 12V11.0001H24V12C24.0006 12.1747 24.047 12.3463 24.1348 12.4974C24.2225 12.6485 24.3484 12.774 24.4999 12.8611V19.9999H21.9999ZM16.5 19.9999V12.8611C16.6515 12.774 16.7774 12.6486 16.8651 12.4974C16.9529 12.3463 16.9993 12.1748 16.9999 12V11.0001H18.5001V12C18.5005 12.1748 18.547 12.3463 18.6347 12.4975C18.7225 12.6486 18.8484 12.774 18.9999 12.8611V19.9999H16.5ZM11.0001 19.9999V12.8611C11.1516 12.774 11.2775 12.6486 11.3653 12.4975C11.453 12.3463 11.4994 12.1748 11.4999 12V11.0001H13.0001V12C13.0006 12.1748 13.0471 12.3463 13.1348 12.4974C13.2226 12.6486 13.3485 12.774 13.5 12.8611V19.9999H11.0001ZM5.50012 19.9999V12.8611C5.65159 12.774 5.77749 12.6485 5.86522 12.4974C5.95295 12.3463 5.99943 12.1747 6 12V11.0001H7.5V12C7.50052 12.1748 7.547 12.3463 7.63477 12.4975C7.72254 12.6486 7.84852 12.774 8.00006 12.8611V19.9999H5.50012ZM3.50006 13.0001H4.5V19.9999H3.50006V13.0001ZM10.5 12H8.49993V11.0001H10.5V12ZM9 13.0001H10.0001V19.9999H9V13.0001ZM15.9999 12H14.0001V11.0001H15.9999V12ZM14.4999 13.0001H15.5001V19.9999H14.4999V13.0001ZM21.5001 12H19.5V11.0001H21.5001V12ZM19.9999 13.0001H21V19.9999H19.9999V13.0001ZM25.5 13.0001H26.4999V19.9999H25.5V13.0001ZM27 12H25.0001V11.0001H27V12ZM15 0.999937C19.6725 0.999937 23.8258 3.64195 25.3623 7.5H23.922C23.2969 5.5499 19.0316 4.5 15 4.5C10.9684 4.5 6.70312 5.5499 6.078 7.5H4.63772C6.17409 3.64195 10.3275 0.999937 15 0.999937ZM1.99987 8.49993H6.50006C6.77601 8.49993 6.99993 8.2762 6.99993 8.00006C6.99993 6.95601 10.0435 5.50012 15 5.50012C19.9565 5.50012 23.0001 6.95601 23.0001 8.00006C23.0001 8.27615 23.224 8.49993 23.4999 8.49993H28.0001V10.0001H1.99987V8.49993ZM4.99987 11.0001V12H3V11.0001H4.99987ZM3 21H27V21.9999H3V21ZM1.99987 23.0001H28.0001V24H1.99987V23.0001ZM0.999937 25.0001H29V26.0001H0.999937V25.0001ZM0.999937 29V27H29V29H0.999937Z" fill="url(#paint0_linear_19697_857)"/>
<path d="M13.9999 7.5H15.9998C16.0655 7.50002 16.1305 7.4871 16.1912 7.46198C16.2519 7.43686 16.307 7.40003 16.3535 7.35359C16.3999 7.30715 16.4367 7.25201 16.4619 7.19133C16.487 7.13065 16.4999 7.06561 16.4999 6.99994C16.4999 6.72384 16.2761 6.50006 15.9998 6.50006H13.9999C13.7236 6.50006 13.4999 6.7238 13.4999 6.99994C13.4998 7.06561 13.5128 7.13065 13.5379 7.19133C13.563 7.25201 13.5998 7.30715 13.6463 7.35359C13.6927 7.40003 13.7479 7.43686 13.8085 7.46198C13.8692 7.4871 13.9343 7.50002 13.9999 7.5ZM10.4999 9H19.4999C19.776 9 19.9997 8.77626 19.9997 8.49994C19.9997 8.22398 19.776 8.00006 19.4999 8.00006H10.4999C10.2238 8.00006 10 8.22398 10 8.49994C10 8.77626 10.2237 9 10.4999 9Z" fill="url(#paint1_linear_19697_857)"/>
<defs>
<linearGradient id="paint0_linear_19697_857" x1="0" y1="15" x2="30" y2="15" gradientUnits="userSpaceOnUse">
<stop stop-color="#6DA015"/>
<stop offset="1" stop-color="#46C0A2"/>
</linearGradient>
<linearGradient id="paint1_linear_19697_857" x1="10" y1="7.75003" x2="19.9997" y2="7.75003" gradientUnits="userSpaceOnUse">
<stop stop-color="#6DA015"/>
<stop offset="1" stop-color="#46C0A2"/>
</linearGradient>
</defs>
</svg>
