<svg width="24" height="24" viewBox="0 0 24 24" fill="none" xmlns="http://www.w3.org/2000/svg">
<g clip-path="url(#clip0_19697_914)">
<path d="M23.0483 5.29554L12.1514 0.0349441C12.1037 0.0119448 12.0514 0 11.9985 0C11.9456 0 11.8934 0.0119448 11.8457 0.0349441L0.948703 5.29554C0.889164 5.32429 0.838938 5.36924 0.80379 5.42524C0.768643 5.48124 0.75 5.54602 0.75 5.61213V18.3879C0.75 18.454 0.768643 18.5188 0.80379 18.5748C0.838938 18.6308 0.889164 18.6757 0.948703 18.7045L11.8456 23.9651C11.8933 23.9881 11.9456 24 11.9985 24C12.0514 24 12.1037 23.9881 12.1514 23.9651L23.0483 18.7045C23.1078 18.6757 23.1581 18.6308 23.1932 18.5748C23.2284 18.5188 23.247 18.454 23.247 18.3879V5.61218C23.247 5.54606 23.2284 5.48128 23.1932 5.42527C23.1581 5.36926 23.1078 5.3243 23.0483 5.29554ZM11.9985 0.74196L22.0868 5.61213L19.1624 7.02391C19.1439 7.00944 19.1239 6.99687 19.1029 6.98641L9.08311 2.14938L11.9985 0.74196ZM8.28914 2.54688L18.3628 7.40998L16.2996 8.40602L6.23011 3.5449L8.28914 2.54688ZM18.5985 8.07691V11.7588L16.6713 12.6891V9.00729L18.5985 8.07691ZM22.5439 18.1673L12.3501 23.0883V11.0934L14.7816 9.91952C14.8232 9.89945 14.8604 9.87138 14.8911 9.83693C14.9219 9.80247 14.9455 9.7623 14.9607 9.71871C14.9759 9.67511 14.9824 9.62895 14.9797 9.58286C14.9771 9.53677 14.9654 9.49164 14.9453 9.45007C14.9253 9.40849 14.8972 9.37128 14.8627 9.34055C14.8283 9.30982 14.7881 9.28618 14.7445 9.27098C14.7009 9.25577 14.6548 9.2493 14.6087 9.25194C14.5626 9.25457 14.5175 9.26626 14.4759 9.28633L11.9985 10.4824L11.0237 10.0117C10.9821 9.99164 10.937 9.97994 10.8909 9.9773C10.8448 9.97466 10.7986 9.98112 10.755 9.99633C10.7114 10.0115 10.6713 10.0352 10.6368 10.0659C10.6024 10.0967 10.5743 10.1339 10.5542 10.1755C10.5342 10.217 10.5225 10.2622 10.5198 10.3083C10.5172 10.3543 10.5237 10.4005 10.5389 10.4441C10.5541 10.4877 10.5777 10.5279 10.6084 10.5623C10.6392 10.5968 10.6764 10.6248 10.718 10.6449L11.6469 11.0934V23.0883L1.45313 18.1672V6.17224L9.21563 9.91966C9.26318 9.94273 9.31535 9.95471 9.3682 9.95473C9.44787 9.95482 9.52521 9.92786 9.58755 9.87825C9.64989 9.82864 9.69353 9.75933 9.71132 9.68167C9.72911 9.60401 9.72 9.52262 9.68548 9.45082C9.65095 9.37901 9.59306 9.32107 9.5213 9.28648L1.9102 5.61213L5.40263 3.92613L15.9633 9.0244C15.9648 9.02655 15.9666 9.02847 15.9682 9.03058V13.2493C15.9682 13.3088 15.9833 13.3673 16.0121 13.4194C16.0409 13.4715 16.0825 13.5154 16.1329 13.547C16.1833 13.5786 16.2409 13.597 16.3003 13.6003C16.3597 13.6036 16.419 13.5917 16.4726 13.5659L19.1029 12.2961C19.1624 12.2673 19.2126 12.2224 19.2478 12.1664C19.2829 12.1104 19.3016 12.0456 19.3016 11.9795V7.73754L22.5439 6.17229V18.1673Z" fill="#46C0A2"/>
<path d="M4.35356 16.8033L2.75442 16.0314C2.67046 15.9908 2.57383 15.9853 2.48579 16.016C2.39775 16.0467 2.32551 16.1111 2.28497 16.1951C2.24443 16.2791 2.23891 16.3757 2.26961 16.4637C2.30032 16.5518 2.36474 16.624 2.44871 16.6645L4.04785 17.4365C4.0954 17.4596 4.14757 17.4716 4.20042 17.4716C4.26659 17.4716 4.33142 17.453 4.38747 17.4178C4.44352 17.3827 4.4885 17.3324 4.51725 17.2728C4.53733 17.2312 4.54903 17.1861 4.55167 17.14C4.55431 17.0939 4.54785 17.0478 4.53265 17.0042C4.51745 16.9606 4.49381 16.9204 4.46308 16.8859C4.43236 16.8515 4.39514 16.8234 4.35356 16.8033ZM5.8253 15.8454L2.75663 14.3639C2.67286 14.3249 2.5771 14.3204 2.49007 14.3515C2.40303 14.3825 2.33172 14.4466 2.29154 14.5298C2.25137 14.613 2.24558 14.7087 2.27541 14.7962C2.30524 14.8836 2.3683 14.9558 2.45096 14.9972L5.51963 16.4786C5.56719 16.5016 5.61935 16.5136 5.6722 16.5137C5.75189 16.5138 5.82926 16.4868 5.89161 16.4372C5.95397 16.3876 5.99763 16.3183 6.01542 16.2406C6.03322 16.1629 6.02409 16.0815 5.98955 16.0097C5.95501 15.9379 5.89709 15.8799 5.8253 15.8454Z" fill="#46C0A2"/>
</g>
<defs>
<clipPath id="clip0_19697_914">
<rect width="24" height="24" fill="white"/>
</clipPath>
</defs>
</svg>
