<svg width="32" height="32" viewBox="0 0 32 32" fill="none" xmlns="http://www.w3.org/2000/svg">
<path d="M26.8119 19.0004C26.5876 18.62 26.2411 18.327 25.8288 18.169C25.4165 18.011 24.9629 17.9974 24.5419 18.1304L23.5419 18.4479V7.55285C23.5412 7.18662 23.3953 6.83562 23.1361 6.57689C22.8769 6.31816 22.5256 6.17285 22.1594 6.17285H9.82688C9.46065 6.17285 9.10938 6.31816 8.85018 6.57689C8.59099 6.83562 8.44504 7.18662 8.44437 7.55285V17.0529C8.05788 17.1267 7.66535 17.1643 7.27187 17.1654H5.54688C5.38111 17.1654 5.22214 17.2312 5.10493 17.3484C4.98772 17.4656 4.92188 17.6246 4.92188 17.7904C4.92188 17.9561 4.98772 18.1151 5.10493 18.2323C5.22214 18.3495 5.38111 18.4154 5.54688 18.4154H7.27187C8.58796 18.4168 9.88127 18.0719 11.0219 17.4154L15.8469 14.6229C16.0439 14.5342 16.2666 14.5209 16.4728 14.5855C16.679 14.65 16.8543 14.788 16.9655 14.9732C17.0768 15.1584 17.1162 15.378 17.0764 15.5904C17.0365 15.8027 16.9202 15.9931 16.7494 16.1254L12.1444 18.8354C11.8886 18.9869 11.6895 19.2182 11.5776 19.4937C11.4657 19.7692 11.4472 20.0738 11.5249 20.3608C11.6026 20.6478 11.7723 20.9015 12.0079 21.0829C12.2435 21.2643 12.532 21.3635 12.8294 21.3654H17.3119C18.0994 21.3663 18.8822 21.244 19.6319 21.0029L24.9244 19.3029C25.0742 19.2557 25.2356 19.2606 25.3822 19.3169C25.5289 19.3732 25.6521 19.4775 25.7319 19.6129C25.782 19.6967 25.8133 19.7904 25.8236 19.8875C25.834 19.9846 25.8232 20.0828 25.7919 20.1754C25.7619 20.2686 25.7122 20.3544 25.6462 20.4269C25.5802 20.4993 25.4995 20.5568 25.4094 20.5954L18.4394 23.6229C18.3472 23.6608 18.2506 23.6869 18.1519 23.7004L11.6519 24.5604C11.2252 24.6146 10.7918 24.547 10.4019 24.3654L7.79437 23.1479C7.24165 22.8895 6.63951 22.7539 6.02938 22.7504H5.54688C5.38111 22.7504 5.22214 22.8162 5.10493 22.9334C4.98772 23.0506 4.92188 23.2096 4.92188 23.3754C4.92188 23.5411 4.98772 23.7001 5.10493 23.8173C5.22214 23.9345 5.38111 24.0004 5.54688 24.0004H6.02938C6.45582 24.0015 6.87702 24.0945 7.26437 24.2729L9.87188 25.5004C10.3373 25.7191 10.8451 25.8326 11.3594 25.8329C11.5141 25.8332 11.6687 25.8224 11.8219 25.8004L18.3219 24.9429C18.5359 24.9161 18.7448 24.858 18.9419 24.7704L25.9069 21.7504C26.1575 21.6412 26.3822 21.4804 26.5664 21.2784C26.7505 21.0763 26.8898 20.8377 26.9753 20.578C27.0607 20.3184 27.0903 20.0436 27.0622 19.7717C27.034 19.4998 26.9487 19.237 26.8119 19.0004ZM18.5869 7.42285C18.5576 8.08942 18.2721 8.71897 17.7901 9.18028C17.3081 9.64159 16.6666 9.89908 15.9994 9.89908C15.3322 9.89908 14.6907 9.64159 14.2086 9.18028C13.7266 8.71897 13.4412 8.08942 13.4119 7.42285H18.5869ZM19.2494 19.8229C18.6233 20.0242 17.9695 20.1263 17.3119 20.1254H12.8344C12.8186 20.1255 12.8029 20.1222 12.7885 20.1158C12.7741 20.1094 12.7612 20.0999 12.7508 20.088C12.7403 20.0762 12.7326 20.0622 12.728 20.0471C12.7235 20.0319 12.7222 20.016 12.7244 20.0004C12.724 19.9807 12.7289 19.9612 12.7385 19.9441C12.7482 19.9269 12.7623 19.9127 12.7794 19.9029L17.3769 17.2029C17.8466 16.909 18.1834 16.4438 18.3162 15.9058C18.4489 15.3679 18.367 14.7994 18.0879 14.3208C17.8087 13.8422 17.3543 13.491 16.8208 13.3416C16.2872 13.1922 15.7165 13.2563 15.2294 13.5204L10.4019 16.3129C10.1738 16.4452 9.93745 16.563 9.69437 16.6654V7.55285C9.69437 7.53557 9.69782 7.51846 9.7045 7.50252C9.71119 7.48658 9.72099 7.47214 9.73333 7.46003C9.74567 7.44793 9.7603 7.4384 9.77636 7.43202C9.79242 7.42564 9.80959 7.42252 9.82688 7.42285H12.1619C12.1619 8.44062 12.5662 9.4167 13.2859 10.1364C14.0055 10.856 14.9816 11.2604 15.9994 11.2604C17.0171 11.2604 17.9932 10.856 18.7129 10.1364C19.4326 9.4167 19.8369 8.44062 19.8369 7.42285H22.1719C22.1892 7.42252 22.2063 7.42564 22.2224 7.43202C22.2385 7.4384 22.2531 7.44793 22.2654 7.46003C22.2778 7.47214 22.2876 7.48658 22.2942 7.50252C22.3009 7.51846 22.3044 7.53557 22.3044 7.55285V18.8404L19.2494 19.8229Z" fill="url(#paint0_linear_19697_877)"/>
<defs>
<linearGradient id="paint0_linear_19697_877" x1="4.92188" y1="16.0029" x2="27.0725" y2="16.0029" gradientUnits="userSpaceOnUse">
<stop stop-color="#6DA015"/>
<stop offset="1" stop-color="#46C0A2"/>
</linearGradient>
</defs>
</svg>
