<svg width="32" height="32" viewBox="0 0 32 32" fill="none" xmlns="http://www.w3.org/2000/svg">
<path fill-rule="evenodd" clip-rule="evenodd" d="M9.30396 21.9533C11.5633 21.9533 13.397 23.787 13.397 26.0464C13.397 28.3057 11.5633 30.1394 9.30396 30.1394C7.04461 30.1394 5.21094 28.3057 5.21094 26.0464C5.21094 23.787 7.04461 21.9533 9.30396 21.9533ZM9.30396 24.1859C8.27698 24.1859 7.4435 25.0194 7.4435 26.0464C7.4435 27.0733 8.27698 27.9068 9.30396 27.9068C10.3309 27.9068 11.1644 27.0733 11.1644 26.0464C11.1644 25.0194 10.3309 24.1859 9.30396 24.1859ZM22.6993 21.9533C24.9587 21.9533 26.7923 23.787 26.7923 26.0464C26.7923 28.3057 24.9587 30.1394 22.6993 30.1394C20.44 30.1394 18.6063 28.3057 18.6063 26.0464C18.6063 23.787 20.44 21.9533 22.6993 21.9533ZM22.6993 24.1859C21.6723 24.1859 20.8388 25.0194 20.8388 26.0464C20.8388 27.0733 21.6723 27.9068 22.6993 27.9068C23.7263 27.9068 24.5598 27.0733 24.5598 26.0464C24.5598 25.0194 23.7263 24.1859 22.6993 24.1859Z" fill="url(#paint0_linear_19697_885)"/>
<path fill-rule="evenodd" clip-rule="evenodd" d="M12.2791 27.1627C11.6629 27.1627 11.1628 26.6626 11.1628 26.0464C11.1628 25.4302 11.6629 24.9301 12.2791 24.9301H19.7209C20.3371 24.9301 20.8372 25.4302 20.8372 26.0464C20.8372 26.6626 20.3371 27.1627 19.7209 27.1627H12.2791ZM21.5814 23.0696C21.5814 23.6858 21.0813 24.1859 20.4651 24.1859C19.8489 24.1859 19.3488 23.6858 19.3488 23.0696V9.67429C19.3488 9.18015 19.1524 8.70831 18.8041 8.35857C18.4544 8.01029 17.9825 7.81383 17.4884 7.81383H15.2558C14.6396 7.81383 14.1395 7.31373 14.1395 6.69755C14.1395 6.08136 14.6396 5.58127 15.2558 5.58127H17.4884C18.5739 5.58169 19.615 6.01255 20.3833 6.77938C21.1501 7.54769 21.581 8.58876 21.5814 9.67429V23.0696ZM0 12.651C0 12.0348 0.500093 11.5348 1.11628 11.5348C1.73247 11.5348 2.23256 12.0348 2.23256 12.651V23.0696C2.23256 24.0966 3.06605 24.9301 4.09302 24.9301H6.32558C6.94177 24.9301 7.44186 25.4302 7.44186 26.0464C7.44186 26.6626 6.94177 27.1627 6.32558 27.1627H4.09302C1.83216 27.1627 0 25.3305 0 23.0696V12.651Z" fill="url(#paint1_linear_19697_885)"/>
<path fill-rule="evenodd" clip-rule="evenodd" d="M25.6732 27.1624C25.0571 27.1624 24.557 26.6623 24.557 26.0461C24.557 25.4299 25.0571 24.9298 25.6732 24.9298H29.3942C29.4928 24.9298 29.5875 24.8906 29.6572 24.8208C29.727 24.751 29.7662 24.6564 29.7663 24.5577V19.2115C29.7665 18.5503 29.5707 17.9039 29.2037 17.354L25.9308 12.4439C25.8608 12.3411 25.7447 12.2787 25.6212 12.2787H21.5802V23.8136C21.5802 24.4297 21.0801 24.9298 20.4639 24.9298C19.8477 24.9298 19.3477 24.4297 19.3477 23.8136V11.1624C19.3477 10.5462 19.8477 10.0461 20.4639 10.0461H25.6212C26.0499 10.0461 26.472 10.1519 26.8501 10.3542C27.2281 10.5564 27.5504 10.8489 27.7882 11.2056L31.0612 16.1157C31.6726 17.0324 31.9989 18.1096 31.9989 19.2115V24.5577C31.9989 25.997 30.832 27.1624 29.3942 27.1624H25.6732Z" fill="url(#paint2_linear_19697_885)"/>
<path fill-rule="evenodd" clip-rule="evenodd" d="M30.1394 16.7441C30.7556 16.7441 31.2557 17.2442 31.2557 17.8604C31.2557 18.4765 30.7556 18.9766 30.1394 18.9766H20.465C19.8488 18.9766 19.3487 18.4765 19.3487 17.8604C19.3487 17.2442 19.8488 16.7441 20.465 16.7441H30.1394ZM1.90645 9.05812C1.42574 8.67266 1.34834 7.97009 1.73228 7.48791C2.11774 7.0072 2.82025 6.9298 3.30254 7.3138L6.16022 9.60146L12.1599 2.26968C12.5498 1.7934 13.2538 1.72196 13.7301 2.11343C14.2064 2.50338 14.2778 3.20741 13.8863 3.68363L7.18865 11.8697C6.80168 12.343 6.10512 12.4159 5.62738 12.0349L1.90645 9.05812Z" fill="url(#paint3_linear_19697_885)"/>
<defs>
<linearGradient id="paint0_linear_19697_885" x1="5.21094" y1="26.0464" x2="26.7923" y2="26.0464" gradientUnits="userSpaceOnUse">
<stop stop-color="#6DA015"/>
<stop offset="1" stop-color="#46C0A2"/>
</linearGradient>
<linearGradient id="paint1_linear_19697_885" x1="0" y1="16.372" x2="21.5814" y2="16.372" gradientUnits="userSpaceOnUse">
<stop stop-color="#6DA015"/>
<stop offset="1" stop-color="#46C0A2"/>
</linearGradient>
<linearGradient id="paint2_linear_19697_885" x1="19.3477" y1="18.6043" x2="31.9989" y2="18.6043" gradientUnits="userSpaceOnUse">
<stop stop-color="#6DA015"/>
<stop offset="1" stop-color="#46C0A2"/>
</linearGradient>
<linearGradient id="paint3_linear_19697_885" x1="1.48828" y1="10.4186" x2="31.2557" y2="10.4186" gradientUnits="userSpaceOnUse">
<stop stop-color="#6DA015"/>
<stop offset="1" stop-color="#46C0A2"/>
</linearGradient>
</defs>
</svg>
