<svg width="32" height="32" viewBox="0 0 32 32" fill="none" xmlns="http://www.w3.org/2000/svg">
<path d="M24.1667 19.0246C21.9425 19.0246 20.1331 20.8341 20.1331 23.0583C20.1331 25.2825 21.9425 27.0919 24.1667 27.0919C26.3912 27.0919 28.2003 25.2825 28.2003 23.0583C28.2003 20.8341 26.3909 19.0246 24.1667 19.0246ZM24.1667 25.0751C23.0544 25.0751 22.1499 24.1705 22.1499 23.0583C22.1499 21.946 23.0544 21.0415 24.1667 21.0415C25.2789 21.0415 26.1835 21.946 26.1835 23.0583C26.1835 24.1706 25.2789 25.0751 24.1667 25.0751ZM10.3852 19.0246C8.161 19.0246 6.35156 20.8341 6.35156 23.0583C6.35156 25.2825 8.161 27.0919 10.3852 27.0919C12.6094 27.0919 14.4188 25.2825 14.4188 23.0583C14.4188 20.8341 12.6094 19.0246 10.3852 19.0246ZM10.3852 25.0751C9.27294 25.0751 8.36837 24.1705 8.36837 23.0583C8.36837 21.946 9.27294 21.0415 10.3852 21.0415C11.4971 21.0415 12.402 21.946 12.402 23.0583C12.402 24.1706 11.4974 25.0751 10.3852 25.0751ZM26.883 7.47914C26.799 7.31219 26.6702 7.17186 26.5111 7.07381C26.352 6.97576 26.1687 6.92383 25.9818 6.92383H20.6709V8.94064H25.3599L28.1058 14.4021L29.9082 13.4959L26.883 7.47914Z" fill="url(#paint0_linear_19697_867)"/>
<path d="M13.5126 22.0837H21.1429V24.1005H13.5126V22.0837ZM7.36131 22.0837H3.86556C3.30856 22.0837 2.85719 22.5352 2.85719 23.0921C2.85719 23.6491 3.30862 24.1005 3.86556 24.1005H7.36137C7.91838 24.1005 8.36975 23.649 8.36975 23.0921C8.36975 22.5351 7.91831 22.0837 7.36131 22.0837ZM31.7882 15.919L29.8048 13.3644C29.7106 13.2429 29.5898 13.1446 29.4518 13.077C29.3138 13.0094 29.1621 12.9743 29.0084 12.9744H21.6807V5.9156C21.6807 5.3586 21.2292 4.90723 20.6723 4.90723H3.86556C3.30856 4.90723 2.85719 5.35866 2.85719 5.9156C2.85719 6.47254 3.30862 6.92398 3.86556 6.92398H19.6639V13.9828C19.6639 14.5398 20.1153 14.9912 20.6723 14.9912H28.5146L29.9832 16.8829V22.0836H27.1933C26.6363 22.0836 26.1849 22.535 26.1849 23.092C26.1849 23.649 26.6363 24.1004 27.1933 24.1004H30.9916C31.5486 24.1004 31.9999 23.6489 32 23.092V16.5375C32 16.3136 31.9254 16.0958 31.7882 15.919ZM7.29413 16.9745H2.65544C2.09844 16.9745 1.64706 17.4259 1.64706 17.9829C1.64706 18.5399 2.0985 18.9912 2.65544 18.9912H7.29406C7.85106 18.9912 8.30244 18.5398 8.30244 17.9829C8.3025 17.4259 7.85106 16.9745 7.29413 16.9745ZM9.61344 13.008H1.00838C0.451438 13.008 0 13.4595 0 14.0165C0 14.5735 0.451438 15.0249 1.00838 15.0249H9.61344C10.1704 15.0249 10.6218 14.5734 10.6218 14.0165C10.6218 13.4595 10.1704 13.008 9.61344 13.008Z" fill="url(#paint1_linear_19697_867)"/>
<path d="M11.2619 9.04199H2.65681C2.09981 9.04199 1.64844 9.49343 1.64844 10.0504C1.64844 10.6074 2.09987 11.0587 2.65681 11.0587H11.2619C11.8189 11.0587 12.2703 10.6073 12.2703 10.0504C12.2703 9.49343 11.8189 9.04199 11.2619 9.04199Z" fill="url(#paint2_linear_19697_867)"/>
<defs>
<linearGradient id="paint0_linear_19697_867" x1="6.35156" y1="17.0079" x2="29.9082" y2="17.0079" gradientUnits="userSpaceOnUse">
<stop stop-color="#6DA015"/>
<stop offset="1" stop-color="#46C0A2"/>
</linearGradient>
<linearGradient id="paint1_linear_19697_867" x1="0" y1="14.5039" x2="32" y2="14.5039" gradientUnits="userSpaceOnUse">
<stop stop-color="#6DA015"/>
<stop offset="1" stop-color="#46C0A2"/>
</linearGradient>
<linearGradient id="paint2_linear_19697_867" x1="1.64844" y1="10.0504" x2="12.2703" y2="10.0504" gradientUnits="userSpaceOnUse">
<stop stop-color="#6DA015"/>
<stop offset="1" stop-color="#46C0A2"/>
</linearGradient>
</defs>
</svg>
