<svg width="24" height="24" viewBox="0 0 24 24" fill="none" xmlns="http://www.w3.org/2000/svg">
<path d="M22.5382 13.6969C22.4155 13.484 22.2518 13.2976 22.0566 13.1485C21.8614 12.9993 21.6385 12.8904 21.4009 12.828C20.9213 12.7024 20.4116 12.7705 19.9819 13.0177L19.9024 13.0639V4.4936C19.9024 4.1741 19.7782 3.8741 19.5525 3.64835C19.4418 3.53693 19.3101 3.4486 19.165 3.38847C19.0199 3.32835 18.8643 3.29763 18.7072 3.2981H7.97248C7.65551 3.2984 7.3516 3.42445 7.12747 3.64858C6.90333 3.87272 6.77728 4.17663 6.77698 4.4936V12.8422L5.88148 13.3616V12.4811C5.88148 12.3816 5.84198 12.2863 5.77165 12.2159C5.70132 12.1456 5.60594 12.1061 5.50648 12.1061H1.58398C1.48453 12.1061 1.38915 12.1456 1.31882 12.2159C1.24849 12.2863 1.20898 12.3816 1.20898 12.4811V20.3269C1.20898 20.4263 1.24849 20.5217 1.31882 20.592C1.38915 20.6623 1.48453 20.7019 1.58398 20.7019H5.50686C5.60632 20.7019 5.7017 20.6623 5.77202 20.592C5.84235 20.5217 5.88186 20.4263 5.88186 20.3269V19.5251H16.1175C16.1831 19.5251 16.248 19.5079 16.3057 19.4745L21.8587 16.2536C22.0716 16.1309 22.258 15.9672 22.4071 15.7719C22.5562 15.5767 22.6652 15.3538 22.7276 15.1162C22.7914 14.8789 22.8075 14.6312 22.775 14.3876C22.7425 14.144 22.662 13.9092 22.5382 13.6969ZM14.4941 4.0481V5.1731H12.1852V4.0481H14.4941ZM7.52736 4.4936C7.52756 4.37551 7.57456 4.26231 7.65806 4.1788C7.74157 4.0953 7.85477 4.0483 7.97286 4.0481H11.4356V5.5481C11.4356 5.64756 11.4751 5.74294 11.5454 5.81327C11.6158 5.88359 11.7112 5.9231 11.8106 5.9231H14.8695C14.9689 5.9231 15.0643 5.88359 15.1347 5.81327C15.205 5.74294 15.2445 5.64756 15.2445 5.5481V4.0481H18.7072C18.8261 4.0481 18.9379 4.0946 19.0219 4.1786C19.1059 4.2626 19.152 4.37435 19.152 4.4936V13.4989L16.0252 15.3124L11.2579 14.5683L12.7485 13.7036C13.1805 13.4531 13.4891 13.0489 13.6174 12.5662C13.7456 12.0836 13.6785 11.5796 13.4276 11.1469C13.1775 10.7187 12.7687 10.4063 12.2899 10.2776C11.8104 10.1521 11.3009 10.2203 10.8712 10.4674L7.52698 12.4069L7.52736 4.4936ZM5.13186 19.9519H1.95898V12.8561H5.13186V19.9519ZM22.0027 14.9235C21.9653 15.0658 21.9001 15.1993 21.8107 15.3163C21.7214 15.4333 21.6097 15.5313 21.4822 15.6049L16.0354 18.7642C16.0241 18.7665 16.0125 18.7691 16.0012 18.7721L15.99 18.7755H5.88186V14.2286L11.2481 11.1165C11.5055 10.9686 11.8106 10.9276 12.0979 11.0025C12.3847 11.0798 12.6296 11.2669 12.7796 11.5234C12.9296 11.7825 12.9701 12.0844 12.8932 12.3731C12.8557 12.5154 12.7904 12.6488 12.701 12.7658C12.6117 12.8827 12.5001 12.9808 12.3727 13.0545L9.96561 14.4506C9.89836 14.4894 9.84481 14.5481 9.81237 14.6186C9.77993 14.6891 9.7702 14.768 9.78453 14.8443C9.79886 14.9206 9.83654 14.9906 9.89235 15.0445C9.94817 15.0985 10.0194 15.1337 10.0961 15.1455L16.0414 16.0732C16.1262 16.0865 16.2131 16.0702 16.2874 16.0271L20.3584 13.6661C20.6158 13.518 20.9211 13.4771 21.2085 13.5521C21.3507 13.5899 21.4842 13.6554 21.6011 13.7448C21.718 13.8342 21.8162 13.9457 21.8899 14.0731C21.9637 14.2005 22.0116 14.3412 22.031 14.4871C22.0504 14.633 22.0407 14.7813 22.0027 14.9235Z" fill="#46C0A2"/>
<path d="M12.678 9.31124C12.7128 9.34618 12.7541 9.37391 12.7996 9.39284C12.8451 9.41176 12.8939 9.4215 12.9431 9.4215C12.9924 9.4215 13.0412 9.41176 13.0867 9.39284C13.1322 9.37391 13.1735 9.34618 13.2083 9.31124L15.3293 7.19024C15.3641 7.15542 15.3917 7.11409 15.4105 7.0686C15.4294 7.02311 15.4391 6.97435 15.4391 6.92511C15.4391 6.87588 15.4294 6.82712 15.4105 6.78163C15.3917 6.73614 15.3641 6.69481 15.3293 6.65999C15.2944 6.62517 15.2531 6.59755 15.2076 6.57871C15.1621 6.55987 15.1134 6.55017 15.0641 6.55017C15.0149 6.55017 14.9661 6.55987 14.9206 6.57871C14.8752 6.59755 14.8338 6.62517 14.799 6.65999L12.9431 8.51586L11.8823 7.45536C11.8119 7.38505 11.7166 7.34555 11.6171 7.34555C11.5177 7.34555 11.4223 7.38505 11.352 7.45536C11.2817 7.52568 11.2422 7.62105 11.2422 7.72049C11.2422 7.81993 11.2817 7.9153 11.352 7.98561L12.678 9.31124Z" fill="#46C0A2"/>
</svg>
