<svg width="32" height="32" viewBox="0 0 32 32" fill="none" xmlns="http://www.w3.org/2000/svg">
<path d="M21.4031 5.40312C20.2338 5.40312 19.0869 5.59312 18 5.96187C18.6075 6.41 19.1681 6.90812 19.6769 7.44875C20.2412 7.33562 20.8188 7.27812 21.4031 7.27812C26.2125 7.27812 30.125 11.1906 30.125 16C30.125 20.8094 26.2125 24.7219 21.4031 24.7219C20.8188 24.7219 20.2412 24.6644 19.6769 24.5512C19.1637 25.0963 18.6025 25.5939 18 26.0381C19.0869 26.4069 20.2338 26.5969 21.4031 26.5969C27.2463 26.5969 32 21.8431 32 16C32 10.1569 27.2463 5.40312 21.4031 5.40312Z" fill="url(#paint0_linear_19697_830)"/>
<path d="M21.1519 16.9375H13.9606C13.4425 16.9375 13.0231 16.5175 13.0231 16C13.0231 15.4825 13.4425 15.0625 13.9606 15.0625H21.1519C20.8725 11.8994 19.1875 9.01437 16.525 7.215C14.7712 6.03 12.7213 5.40312 10.5969 5.40312C4.75375 5.40312 0 10.1569 0 16C0 21.8431 4.75375 26.5969 10.5969 26.5969C12.7213 26.5969 14.7712 25.97 16.525 24.785C19.1875 22.9856 20.8725 20.1006 21.1519 16.9375ZM21.1519 16.9375H23.7994L23.4644 17.2719C23.0987 17.6381 23.0987 18.2319 23.4644 18.5981C23.6475 18.7812 23.8875 18.8725 24.1275 18.8725C24.3675 18.8725 24.6075 18.7812 24.7906 18.5981L26.7256 16.6631C26.7519 16.6362 26.7769 16.6081 26.8 16.5781C26.9338 16.4137 26.9988 16.2069 26.9981 16C26.9975 15.7556 26.905 15.5112 26.7256 15.3369L24.7906 13.4019C24.4244 13.0362 23.8306 13.0362 23.4644 13.4019C23.0987 13.7681 23.0987 14.3619 23.4644 14.7281L23.7994 15.0625H21.1519C21.18 15.3725 21.1938 15.6856 21.1938 16C21.1938 16.3144 21.18 16.6275 21.1519 16.9375Z" fill="url(#paint1_linear_19697_830)"/>
<defs>
<linearGradient id="paint0_linear_19697_830" x1="18" y1="16" x2="32" y2="16" gradientUnits="userSpaceOnUse">
<stop stop-color="#6DA015"/>
<stop offset="1" stop-color="#46C0A2"/>
</linearGradient>
<linearGradient id="paint1_linear_19697_830" x1="0" y1="16" x2="26.9981" y2="16" gradientUnits="userSpaceOnUse">
<stop stop-color="#6DA015"/>
<stop offset="1" stop-color="#46C0A2"/>
</linearGradient>
</defs>
</svg>
