<svg width="162" height="168" viewBox="0 0 162 168" fill="none" xmlns="http://www.w3.org/2000/svg">
<path d="M85.6445 12.9043C119.242 12.9043 146.699 40.2404 146.699 74.0801C146.699 107.92 119.362 135.256 85.6445 135.256C51.9266 135.256 24.5899 107.92 24.5898 74.0801C24.5898 40.2398 51.9266 12.9044 85.6445 12.9043Z" fill="url(#paint0_linear_19853_346)" stroke="#46C0A2"/>
<path d="M151.024 104.419C153.497 104.419 155.503 106.423 155.503 108.896C155.503 111.369 153.497 113.374 151.024 113.374C148.552 113.374 146.547 111.369 146.547 108.896C146.547 106.423 148.552 104.419 151.024 104.419Z" fill="url(#paint1_linear_19853_346)" stroke="#46C0A2"/>
<path d="M158.306 88.1489C159.907 88.1489 161.205 89.447 161.205 91.0483C161.205 92.6497 159.907 93.9478 158.306 93.9478C156.704 93.9477 155.406 92.6496 155.406 91.0483C155.406 89.4471 156.704 88.149 158.306 88.1489Z" fill="url(#paint2_linear_19853_346)" stroke="#46C0A2"/>
<path d="M27.3643 27.2295C28.9656 27.2295 30.2637 28.5276 30.2637 30.1289C30.2637 31.7302 28.9656 33.0283 27.3643 33.0283C25.7629 33.0283 24.4648 31.7302 24.4648 30.1289C24.4649 28.5276 25.763 27.2295 27.3643 27.2295Z" fill="url(#paint3_linear_19853_346)" stroke="#46C0A2"/>
<path d="M6.60645 86.9641C9.81698 86.9642 12.4199 89.5671 12.4199 92.7776C12.4198 95.988 9.81691 98.591 6.60645 98.5911C3.39591 98.5911 0.793086 95.9881 0.792969 92.7776C0.792969 89.567 3.39583 86.9641 6.60645 86.9641Z" fill="url(#paint4_linear_19853_346)" stroke="#46C0A2"/>
<path d="M130.901 73.0498V73.0488C130.972 73.2938 131.159 73.4803 131.404 73.5518V73.5527L133.897 74.3047L131.404 75.0566C131.191 75.1189 131.002 75.2773 130.923 75.5088L130.909 75.5596L130.157 78.0527L129.405 75.5596H129.404C129.333 75.3147 129.146 75.1277 128.901 75.0566H128.902L126.407 74.3037L128.896 73.5527L128.895 73.5518C129.143 73.4792 129.333 73.2879 129.401 73.0371L129.4 73.0361L130.149 70.5615L130.901 73.0498Z" fill="#ADB6C8" stroke="#46C0A2"/>
<path d="M111.481 37.843V37.842C111.553 38.087 111.74 38.2736 111.984 38.345V38.3459L114.478 39.0969L111.984 39.8489V39.8499C111.771 39.9122 111.582 40.0704 111.503 40.302L111.489 40.3528L110.737 42.8459L109.985 40.3528H109.984C109.913 40.1078 109.726 39.921 109.481 39.8499L109.482 39.8489L106.987 39.0969L109.476 38.3459L109.475 38.345C109.723 38.2724 109.913 38.0811 109.981 37.8303L109.98 37.8293L110.729 35.3547L111.481 37.843Z" fill="#ADB6C8" stroke="#46C0A2"/>
<path d="M62.1543 42.2676L62.1553 42.2666C62.2236 42.5006 62.4028 42.6786 62.6367 42.7471V42.749L64.6191 43.3467L62.6367 43.9443C62.4186 44.0082 62.228 44.1785 62.1621 44.4268H62.1611L61.5635 46.4092L60.9658 44.4268H60.9648C60.8963 44.1922 60.7171 44.0125 60.4824 43.9443H60.4834L58.499 43.3457L60.4775 42.749L60.4766 42.7471C60.7106 42.6786 60.8896 42.5006 60.958 42.2666L60.959 42.2676L61.5566 40.2891L62.1543 42.2676Z" fill="#ADB6C8" stroke="#46C0A2"/>
<path d="M41.5117 94.6487V94.6477C41.5682 94.8703 41.7266 95.0768 41.9795 95.1614V95.1624L41.9932 95.1672V95.1663L44.1787 95.9202L41.9932 96.6731C41.7464 96.7501 41.574 96.9503 41.5186 97.1917H41.5176L40.9248 99.4387L40.3311 97.1917C40.2742 96.969 40.1156 96.7621 39.8623 96.678H39.8633L39.8496 96.6731H39.8486L37.6631 95.9192L39.8574 95.1624L39.8564 95.1614C40.1095 95.0769 40.2677 94.8704 40.3242 94.6477L40.3252 94.6487L40.918 92.4036L41.5117 94.6487Z" fill="#ADB6C8" stroke="#46C0A2"/>
<path d="M36.9629 58.261V58.26C37.0254 58.4732 37.1893 58.6367 37.4023 58.6995V58.7004L38.3643 58.9905L37.4023 59.2805V59.2815C37.2051 59.3398 37.0297 59.494 36.9678 59.7209L36.6768 60.6838L36.3867 59.7209C36.324 59.5076 36.1596 59.3441 35.9463 59.2815L35.9473 59.2805L34.9834 58.9895L35.9424 58.7004L35.9414 58.6995C36.1547 58.6369 36.3182 58.4733 36.3809 58.26L36.3818 58.261L36.6719 57.2991L36.9629 58.261Z" fill="#ADB6C8" stroke="#46C0A2"/>
<path d="M58.8125 78.5435V78.5425C58.8751 78.7557 59.0389 78.9192 59.252 78.9819V78.9829L60.2139 79.2729L59.252 79.563V79.564C59.0547 79.6222 58.8793 79.7765 58.8174 80.0034L58.5264 80.9663L58.2363 80.0034C58.1737 79.7901 58.0092 79.6266 57.7959 79.564L57.7969 79.563L56.833 79.272L57.792 78.9829L57.791 78.9819C58.0043 78.9193 58.1678 78.7558 58.2305 78.5425L58.2314 78.5435L58.5215 77.5815L58.8125 78.5435Z" fill="#ADB6C8" stroke="#46C0A2"/>
<path d="M76.2012 20.7629V20.762C76.2637 20.9751 76.4276 21.1386 76.6406 21.2014V21.2024L77.6025 21.4924L76.6406 21.7825V21.7834C76.4433 21.8417 76.2679 21.996 76.2061 22.2229L75.915 23.1858L75.625 22.2229C75.5623 22.0096 75.3979 21.846 75.1846 21.7834L75.1855 21.7825L74.2217 21.4915L75.1807 21.2024L75.1797 21.2014C75.393 21.1388 75.5565 20.9753 75.6191 20.762L75.6201 20.7629L75.9102 19.801L76.2012 20.7629Z" fill="#ADB6C8" stroke="#46C0A2"/>
<path d="M124.795 108.604V108.603C124.857 108.816 125.021 108.98 125.234 109.043V109.044L126.196 109.334L125.234 109.624V109.625C125.037 109.683 124.862 109.837 124.8 110.064L124.509 111.027L124.219 110.064C124.156 109.851 123.992 109.687 123.778 109.625L123.779 109.624L122.815 109.333L123.774 109.044L123.773 109.043C123.987 108.98 124.15 108.817 124.213 108.603L124.214 108.604L124.504 107.642L124.795 108.604Z" fill="#ADB6C8" stroke="#46C0A2"/>
<path d="M68.8047 88.8132L68.8281 88.8806L68.8691 88.9392L68.8701 88.9412C68.8715 88.9431 68.8742 88.9459 68.877 88.95C68.8825 88.958 68.8912 88.97 68.9023 88.9861C68.9247 89.0184 68.9578 89.0674 69.001 89.1306C69.0874 89.2571 69.2135 89.4428 69.3701 89.6794C69.6836 90.1532 70.1198 90.8297 70.6113 91.6384C71.5966 93.2595 72.7949 95.4001 73.666 97.5007C74.1014 98.5508 74.4505 99.58 74.6523 100.522C74.8554 101.47 74.9025 102.296 74.7637 102.956C74.6283 103.599 74.3204 104.073 73.7979 104.378C73.2566 104.693 72.4216 104.864 71.168 104.749C64.4085 104.13 59.8223 106.459 57.3516 108.275C57.1513 108.422 56.8274 108.448 56.5186 108.313C56.2106 108.179 56.0588 107.952 56.0586 107.741V97.5027C56.0586 95.3174 57.6236 92.8802 59.957 90.4548C62.1048 88.2225 64.8131 86.0916 67.2549 84.2937L68.8047 88.8132Z" fill="white" stroke="#46C0A2"/>
<path d="M105.302 84.2986C107.746 86.1281 110.455 88.2585 112.604 90.4832C114.937 92.8997 116.501 95.3184 116.501 97.5027V107.741C116.501 107.952 116.349 108.179 116.041 108.313C115.732 108.448 115.408 108.422 115.208 108.275C112.737 106.459 108.151 104.13 101.392 104.749C100.138 104.863 99.3029 104.693 98.7617 104.378C98.2391 104.073 97.9313 103.599 97.7959 102.956C97.6571 102.296 97.7042 101.47 97.9072 100.522C98.1091 99.58 98.4581 98.5508 98.8936 97.5007C99.7647 95.4001 100.963 93.2595 101.948 91.6384C102.44 90.8297 102.876 90.1532 103.189 89.6794C103.346 89.4428 103.472 89.2571 103.559 89.1306C103.602 89.0674 103.635 89.0184 103.657 88.9861C103.668 88.97 103.677 88.958 103.683 88.95C103.685 88.9459 103.688 88.9431 103.689 88.9412L103.69 88.9392L103.691 88.9382L103.731 88.8806L103.755 88.8132L105.302 84.2986Z" fill="white" stroke="#46C0A2"/>
<g filter="url(#filter0_d_19853_346)">
<path d="M86.2425 30.677C76.5061 37.6104 64.852 54.6489 66.991 76.3342C69.0563 98.0196 70.9003 108.715 74.8834 111.296C78.9402 113.878 82.9233 114.468 86.2425 114.468C89.5617 114.468 93.5448 113.878 97.6016 111.296C101.658 108.715 103.429 98.0196 105.494 76.3342C107.559 54.6489 95.9051 37.6104 86.2425 30.677Z" fill="white"/>
<path d="M86.2412 31.2952C95.7214 38.2706 107.021 55.0195 104.996 76.2864C103.963 87.1306 103.007 95.1995 101.806 100.875C101.205 103.713 100.547 105.93 99.7998 107.588C99.0503 109.25 98.2307 110.303 97.333 110.874C93.3797 113.39 89.4983 113.968 86.2422 113.968C82.9861 113.968 79.1046 113.39 75.1514 110.874C74.2722 110.303 73.4624 109.25 72.7168 107.589C71.9722 105.931 71.3122 103.713 70.707 100.875C69.4967 95.1996 68.522 87.13 67.4893 76.2864L67.4883 76.2854L67.3994 75.2815C65.7473 54.492 76.8413 38.1597 86.2412 31.2952Z" stroke="#46C0A2"/>
</g>
<g filter="url(#filter1_d_19853_346)">
<path d="M93.6182 117.492H78.8661C77.6859 117.492 76.8008 116.533 76.8008 115.426V111.812H95.7572V115.353C95.6834 116.533 94.7246 117.492 93.6182 117.492Z" fill="white"/>
<path d="M95.2568 112.312V115.33C95.1938 116.271 94.4301 116.992 93.6182 116.992H78.8662C77.9738 116.992 77.3008 116.268 77.3008 115.427V112.312H95.2568Z" stroke="#46C0A2"/>
</g>
<path d="M86.7764 82.8086V109.026H85.7109V82.8086H86.7764Z" fill="white" stroke="#46C0A2"/>
<path d="M86.2456 67.4841C90.2786 67.4841 93.5479 64.2147 93.5479 60.1818C93.5479 56.1489 90.2786 52.8796 86.2456 52.8796C82.2127 52.8796 78.9434 56.1489 78.9434 60.1818C78.9434 64.2147 82.2127 67.4841 86.2456 67.4841Z" fill="white" stroke="#46C0A2" stroke-width="4" stroke-miterlimit="10"/>
<path d="M85.5811 121.311C91.2772 121.311 95.8504 125.953 95.8506 131.579C95.8506 134.509 94.6618 143.446 92.7197 151.665C91.7496 155.771 90.5989 159.666 89.3281 162.525C88.6917 163.956 88.0367 165.101 87.3779 165.879C86.7107 166.668 86.1087 167 85.5811 167C85.0535 167 84.4522 166.667 83.7852 165.879C83.1264 165.101 82.4714 163.956 81.835 162.525C80.5642 159.666 79.4135 155.771 78.4434 151.665C76.5013 143.446 75.3125 134.509 75.3125 131.579C75.3127 125.881 79.8829 121.311 85.5811 121.311Z" fill="white" stroke="#46C0A2"/>
<path d="M85.5811 128.318C87.8127 128.318 89.6543 130.16 89.6543 132.392C89.6543 134.364 89.0553 138.488 88.1797 142.728C87.4295 146.36 86.488 150.009 85.5781 152.406C84.6704 150.034 83.7315 146.39 82.9824 142.755C82.1069 138.506 81.5078 134.364 81.5078 132.392C81.5078 130.16 83.3493 128.318 85.5811 128.318Z" fill="white" stroke="#46C0A2"/>
<path d="M155.187 19.4023C157.926 19.4025 160.146 21.6238 160.146 24.3633C160.146 27.1027 157.926 29.3231 155.187 29.3232C152.447 29.3232 150.226 27.1028 150.226 24.3633C150.226 21.6237 152.447 19.4023 155.187 19.4023Z" fill="url(#paint5_linear_19853_346)" stroke="#46C0A2" stroke-width="3.09589"/>
<path d="M17.6992 2.04688C21.637 2.04688 24.8299 5.23908 24.8301 9.17676C24.8301 13.1145 21.6371 16.3066 17.6992 16.3066C13.7615 16.3065 10.5693 13.1144 10.5693 9.17676C10.5695 5.23918 13.7616 2.04705 17.6992 2.04688Z" fill="url(#paint6_linear_19853_346)" stroke="#46C0A2" stroke-width="3.09589"/>
<path d="M9.01855 113.125C10.56 113.125 11.8095 114.374 11.8096 115.916C11.8096 117.457 10.56 118.707 9.01855 118.707C7.47714 118.707 6.22754 117.457 6.22754 115.916C6.2276 114.374 7.47718 113.125 9.01855 113.125Z" fill="url(#paint7_linear_19853_346)" stroke="#46C0A2" stroke-width="3.09589"/>
<mask id="path-27-inside-1_19853_346" fill="white">
<ellipse cx="143.966" cy="139.781" rx="2.16951" ry="2.16949"/>
</mask>
<ellipse cx="143.966" cy="139.781" rx="2.16951" ry="2.16949" fill="url(#paint8_linear_19853_346)"/>
<path d="M146.136 139.781H143.04C143.04 139.269 143.455 138.855 143.966 138.855V141.951V145.046C146.874 145.046 149.232 142.689 149.232 139.781H146.136ZM143.966 141.951V138.855C144.478 138.855 144.893 139.269 144.893 139.781H141.797H138.701C138.701 142.689 141.058 145.046 143.966 145.046V141.951ZM141.797 139.781H144.893C144.893 140.293 144.478 140.707 143.966 140.707V137.612V134.516C141.058 134.516 138.701 136.873 138.701 139.781H141.797ZM143.966 137.612V140.707C143.455 140.707 143.04 140.293 143.04 139.781H146.136H149.232C149.232 136.873 146.874 134.516 143.966 134.516V137.612Z" fill="#46C0A2" mask="url(#path-27-inside-1_19853_346)"/>
<mask id="path-29-inside-2_19853_346" fill="white">
<ellipse cx="92.7633" cy="4.40387" rx="2.16951" ry="2.16949"/>
</mask>
<ellipse cx="92.7633" cy="4.40387" rx="2.16951" ry="2.16949" fill="url(#paint9_linear_19853_346)"/>
<path d="M94.9328 4.40387H91.8369C91.8369 3.8922 92.2517 3.47747 92.7633 3.47747V6.57336V9.66925C95.6712 9.66925 98.0287 7.31189 98.0287 4.40387H94.9328ZM92.7633 6.57336V3.47747C93.2749 3.47747 93.6896 3.8922 93.6896 4.40387H90.5938H87.4979C87.4979 7.31189 89.8553 9.66925 92.7633 9.66925V6.57336ZM90.5938 4.40387H93.6896C93.6896 4.91553 93.2749 5.33027 92.7633 5.33027V2.23438V-0.861516C89.8553 -0.861516 87.4979 1.49585 87.4979 4.40387H90.5938ZM92.7633 2.23438V5.33027C92.2517 5.33027 91.8369 4.91553 91.8369 4.40387H94.9328H98.0287C98.0287 1.49585 95.6712 -0.861516 92.7633 -0.861516V2.23438Z" fill="#46C0A2" mask="url(#path-29-inside-2_19853_346)"/>
<mask id="path-31-inside-3_19853_346" fill="white">
<ellipse cx="54.5822" cy="153.665" rx="3.03732" ry="3.03729"/>
</mask>
<ellipse cx="54.5822" cy="153.665" rx="3.03732" ry="3.03729" fill="url(#paint10_linear_19853_346)"/>
<path d="M57.6196 153.665H54.5237C54.5237 153.665 54.5237 153.662 54.5248 153.657C54.5259 153.652 54.5275 153.647 54.5296 153.642C54.5335 153.632 54.5378 153.627 54.5408 153.624C54.5439 153.621 54.5493 153.617 54.5585 153.613C54.5633 153.611 54.5686 153.609 54.5737 153.608C54.5791 153.607 54.5823 153.607 54.5822 153.607V156.703V159.799C57.9695 159.799 60.7155 157.053 60.7155 153.665H57.6196ZM54.5822 156.703V153.607C54.5822 153.607 54.5854 153.607 54.5908 153.608C54.5959 153.609 54.6012 153.611 54.606 153.613C54.6152 153.617 54.6206 153.621 54.6236 153.624C54.6267 153.627 54.631 153.632 54.6349 153.642C54.637 153.647 54.6386 153.652 54.6397 153.657C54.6408 153.662 54.6408 153.665 54.6408 153.665H51.5449H48.449C48.449 157.053 51.195 159.799 54.5822 159.799V156.703ZM51.5449 153.665H54.6408C54.6408 153.665 54.6408 153.669 54.6397 153.674C54.6386 153.679 54.637 153.684 54.6349 153.689C54.631 153.698 54.6267 153.704 54.6236 153.707C54.6206 153.71 54.6152 153.714 54.606 153.718C54.6012 153.72 54.5959 153.722 54.5908 153.723C54.5854 153.724 54.5822 153.724 54.5822 153.724V150.628V147.532C51.195 147.532 48.449 150.278 48.449 153.665H51.5449ZM54.5822 150.628V153.724C54.5823 153.724 54.5791 153.724 54.5737 153.723C54.5686 153.722 54.5633 153.72 54.5585 153.718C54.5493 153.714 54.5439 153.71 54.5408 153.707C54.5378 153.704 54.5335 153.698 54.5296 153.689C54.5275 153.684 54.5259 153.679 54.5248 153.674C54.5237 153.669 54.5237 153.665 54.5237 153.665H57.6196H60.7155C60.7155 150.278 57.9695 147.532 54.5822 147.532V150.628Z" fill="#46C0A2" mask="url(#path-31-inside-3_19853_346)"/>
<ellipse cx="106.214" cy="148.892" rx="0.867806" ry="0.867797" fill="url(#paint11_linear_19853_346)"/>
<mask id="path-34-inside-4_19853_346" fill="white">
<ellipse cx="148.302" cy="96.3897" rx="2.16951" ry="2.16949"/>
</mask>
<ellipse cx="148.302" cy="96.3897" rx="2.16951" ry="2.16949" fill="url(#paint12_linear_19853_346)"/>
<path d="M150.472 96.3897H147.376C147.376 95.878 147.791 95.4633 148.302 95.4633V98.5592V101.655C151.21 101.655 153.568 99.2977 153.568 96.3897H150.472ZM148.302 98.5592V95.4633C148.814 95.4633 149.229 95.878 149.229 96.3897H146.133H143.037C143.037 99.2977 145.394 101.655 148.302 101.655V98.5592ZM146.133 96.3897H149.229C149.229 96.9014 148.814 97.3161 148.302 97.3161V94.2202V91.1243C145.394 91.1243 143.037 93.4817 143.037 96.3897H146.133ZM148.302 94.2202V97.3161C147.791 97.3161 147.376 96.9014 147.376 96.3897H150.472H153.568C153.568 93.4817 151.21 91.1243 148.302 91.1243V94.2202Z" fill="#46C0A2" mask="url(#path-34-inside-4_19853_346)"/>
<ellipse cx="1.2096" cy="65.5841" rx="0.867806" ry="0.867797" fill="url(#paint13_linear_19853_346)"/>
<defs>
<filter id="filter0_d_19853_346" x="44.7344" y="19.677" width="83" height="127.791" filterUnits="userSpaceOnUse" color-interpolation-filters="sRGB">
<feFlood flood-opacity="0" result="BackgroundImageFix"/>
<feColorMatrix in="SourceAlpha" type="matrix" values="0 0 0 0 0 0 0 0 0 0 0 0 0 0 0 0 0 0 127 0" result="hardAlpha"/>
<feOffset dy="11"/>
<feGaussianBlur stdDeviation="11"/>
<feColorMatrix type="matrix" values="0 0 0 0 0.397708 0 0 0 0 0.47749 0 0 0 0 0.575 0 0 0 0.27 0"/>
<feBlend mode="normal" in2="BackgroundImageFix" result="effect1_dropShadow_19853_346"/>
<feBlend mode="normal" in="SourceGraphic" in2="effect1_dropShadow_19853_346" result="shape"/>
</filter>
<filter id="filter1_d_19853_346" x="54.8008" y="100.812" width="62.957" height="49.6794" filterUnits="userSpaceOnUse" color-interpolation-filters="sRGB">
<feFlood flood-opacity="0" result="BackgroundImageFix"/>
<feColorMatrix in="SourceAlpha" type="matrix" values="0 0 0 0 0 0 0 0 0 0 0 0 0 0 0 0 0 0 127 0" result="hardAlpha"/>
<feOffset dy="11"/>
<feGaussianBlur stdDeviation="11"/>
<feColorMatrix type="matrix" values="0 0 0 0 0.397708 0 0 0 0 0.47749 0 0 0 0 0.575 0 0 0 0.27 0"/>
<feBlend mode="normal" in2="BackgroundImageFix" result="effect1_dropShadow_19853_346"/>
<feBlend mode="normal" in="SourceGraphic" in2="effect1_dropShadow_19853_346" result="shape"/>
</filter>
<linearGradient id="paint0_linear_19853_346" x1="24.0898" y1="74.0799" x2="147.2" y2="74.0799" gradientUnits="userSpaceOnUse">
<stop stop-color="#6DA015"/>
<stop offset="1" stop-color="#46C0A2"/>
</linearGradient>
<linearGradient id="paint1_linear_19853_346" x1="146.047" y1="108.896" x2="156.002" y2="108.896" gradientUnits="userSpaceOnUse">
<stop stop-color="#6DA015"/>
<stop offset="1" stop-color="#46C0A2"/>
</linearGradient>
<linearGradient id="paint2_linear_19853_346" x1="154.906" y1="91.0484" x2="161.705" y2="91.0484" gradientUnits="userSpaceOnUse">
<stop stop-color="#6DA015"/>
<stop offset="1" stop-color="#46C0A2"/>
</linearGradient>
<linearGradient id="paint3_linear_19853_346" x1="23.9648" y1="30.1289" x2="30.7638" y2="30.1289" gradientUnits="userSpaceOnUse">
<stop stop-color="#6DA015"/>
<stop offset="1" stop-color="#46C0A2"/>
</linearGradient>
<linearGradient id="paint4_linear_19853_346" x1="0.292969" y1="92.7774" x2="12.9196" y2="92.7774" gradientUnits="userSpaceOnUse">
<stop stop-color="#6DA015"/>
<stop offset="1" stop-color="#46C0A2"/>
</linearGradient>
<linearGradient id="paint5_linear_19853_346" x1="148.678" y1="24.363" x2="161.695" y2="24.363" gradientUnits="userSpaceOnUse">
<stop stop-color="#6DA015"/>
<stop offset="1" stop-color="#46C0A2"/>
</linearGradient>
<linearGradient id="paint6_linear_19853_346" x1="9.02148" y1="9.177" x2="26.3776" y2="9.177" gradientUnits="userSpaceOnUse">
<stop stop-color="#6DA015"/>
<stop offset="1" stop-color="#46C0A2"/>
</linearGradient>
<linearGradient id="paint7_linear_19853_346" x1="4.67969" y1="115.916" x2="13.3577" y2="115.916" gradientUnits="userSpaceOnUse">
<stop stop-color="#6DA015"/>
<stop offset="1" stop-color="#46C0A2"/>
</linearGradient>
<linearGradient id="paint8_linear_19853_346" x1="141.797" y1="139.781" x2="146.136" y2="139.781" gradientUnits="userSpaceOnUse">
<stop stop-color="#6DA015"/>
<stop offset="1" stop-color="#46C0A2"/>
</linearGradient>
<linearGradient id="paint9_linear_19853_346" x1="90.5938" y1="4.40387" x2="94.9328" y2="4.40387" gradientUnits="userSpaceOnUse">
<stop stop-color="#6DA015"/>
<stop offset="1" stop-color="#46C0A2"/>
</linearGradient>
<linearGradient id="paint10_linear_19853_346" x1="51.5449" y1="153.665" x2="57.6196" y2="153.665" gradientUnits="userSpaceOnUse">
<stop stop-color="#6DA015"/>
<stop offset="1" stop-color="#46C0A2"/>
</linearGradient>
<linearGradient id="paint11_linear_19853_346" x1="105.346" y1="148.892" x2="107.081" y2="148.892" gradientUnits="userSpaceOnUse">
<stop stop-color="#6DA015"/>
<stop offset="1" stop-color="#46C0A2"/>
</linearGradient>
<linearGradient id="paint12_linear_19853_346" x1="146.133" y1="96.3897" x2="150.472" y2="96.3897" gradientUnits="userSpaceOnUse">
<stop stop-color="#6DA015"/>
<stop offset="1" stop-color="#46C0A2"/>
</linearGradient>
<linearGradient id="paint13_linear_19853_346" x1="0.341797" y1="65.5841" x2="2.07741" y2="65.5841" gradientUnits="userSpaceOnUse">
<stop stop-color="#6DA015"/>
<stop offset="1" stop-color="#46C0A2"/>
</linearGradient>
</defs>
</svg>
