<svg width="16" height="17" viewBox="0 0 16 17" fill="none" xmlns="http://www.w3.org/2000/svg">
<g clip-path="url(#clip0_19697_799)">
<path d="M10.6711 10.6812C12.3737 8.00955 12.1597 8.34286 12.2087 8.27321C12.8286 7.3989 13.1562 6.36986 13.1562 5.2973C13.1562 2.45293 10.8481 0.109802 8 0.109802C5.16119 0.109802 2.84375 2.4483 2.84375 5.2973C2.84375 6.36918 3.17825 7.42515 3.81844 8.31124L5.32881 10.6812C3.71397 10.9294 0.96875 11.6689 0.96875 13.2973C0.96875 13.8909 1.35619 14.7368 3.20194 15.396C4.49075 15.8563 6.19472 16.1098 8 16.1098C11.3758 16.1098 15.0312 15.1576 15.0312 13.2973C15.0312 11.6686 12.2893 10.9299 10.6711 10.6812ZM4.60153 7.79558C4.59638 7.78753 4.59099 7.77963 4.58537 7.7719C4.05266 7.03902 3.78125 6.17046 3.78125 5.2973C3.78125 2.95299 5.66894 1.0473 8 1.0473C10.3262 1.0473 12.2188 2.95383 12.2188 5.2973C12.2188 6.17186 11.9525 7.01096 11.4486 7.72452C11.4034 7.78408 11.639 7.41808 8 13.1282L4.60153 7.79558ZM8 15.1723C4.31269 15.1723 1.90625 14.0885 1.90625 13.2973C1.90625 12.7656 3.14275 11.8912 5.88275 11.5504L7.60469 14.2524C7.64703 14.3188 7.70545 14.3735 7.77454 14.4114C7.84363 14.4493 7.92116 14.4692 7.99997 14.4692C8.07877 14.4692 8.15631 14.4493 8.2254 14.4114C8.29449 14.3735 8.35291 14.3188 8.39525 14.2524L10.1172 11.5504C12.8572 11.8912 14.0938 12.7656 14.0938 13.2973C14.0938 14.0817 11.709 15.1723 8 15.1723Z" fill="#7B7B7B"/>
<path d="M8 2.95355C6.70766 2.95355 5.65625 4.00496 5.65625 5.2973C5.65625 6.58965 6.70766 7.64105 8 7.64105C9.29234 7.64105 10.3438 6.58965 10.3438 5.2973C10.3438 4.00496 9.29234 2.95355 8 2.95355ZM8 6.70355C7.22459 6.70355 6.59375 6.07271 6.59375 5.2973C6.59375 4.5219 7.22459 3.89105 8 3.89105C8.77541 3.89105 9.40625 4.5219 9.40625 5.2973C9.40625 6.07271 8.77541 6.70355 8 6.70355Z" fill="#7B7B7B"/>
</g>
<defs>
<clipPath id="clip0_19697_799">
<rect width="16" height="16" fill="white" transform="translate(0 0.109802)"/>
</clipPath>
</defs>
</svg>
