<svg width="20" height="20" viewBox="0 0 20 20" fill="none" xmlns="http://www.w3.org/2000/svg">
<path d="M4.66602 13.6666C4.11375 13.6666 3.66602 14.1144 3.66602 14.6666C3.66602 15.2189 4.11371 15.6666 4.66602 15.6666C5.21832 15.6666 5.66602 15.2189 5.66602 14.6666C5.66539 14.1146 5.21805 13.6672 4.66602 13.6666ZM4.66602 14.9999C4.48191 14.9999 4.3327 14.8507 4.3327 14.6666C4.3327 14.4825 4.48191 14.3333 4.66602 14.3333C4.85012 14.3333 4.99934 14.4825 4.99934 14.6666C4.99924 14.755 4.9641 14.8397 4.90161 14.9022C4.83912 14.9647 4.75439 14.9999 4.66602 14.9999ZM15.3327 13.6666C14.7804 13.6666 14.3327 14.1144 14.3327 14.6666C14.3327 15.2189 14.7804 15.6666 15.3327 15.6666C15.8849 15.6666 16.3327 15.2189 16.3327 14.6666C16.3321 14.1146 15.8847 13.6672 15.3327 13.6666ZM15.3327 14.9999C15.2667 14.9999 15.2023 14.9804 15.1475 14.9438C15.0927 14.9071 15.0499 14.8551 15.0247 14.7942C14.9995 14.7333 14.9929 14.6663 15.0057 14.6016C15.0186 14.5369 15.0503 14.4775 15.097 14.4309C15.1436 14.3843 15.203 14.3526 15.2676 14.3397C15.3323 14.3268 15.3993 14.3334 15.4602 14.3587C15.5211 14.3839 15.5732 14.4266 15.6098 14.4814C15.6464 14.5363 15.666 14.6007 15.666 14.6666C15.6659 14.755 15.6308 14.8397 15.5683 14.9022C15.5058 14.9647 15.421 14.9999 15.3327 14.9999Z" fill="#46C0A2"/>
<path d="M19.7459 8.92187L17.4497 6.33594C17.3557 6.23004 17.2402 6.14533 17.111 6.08742C16.9817 6.0295 16.8417 5.99971 16.7 6H13.6667V4C13.6661 3.44797 13.2187 3.00059 12.6667 3H1C0.447969 3.00059 0.000585974 3.44797 3.6656e-08 4V12.6667C-2.04995e-05 12.7105 0.00858808 12.7538 0.0253337 12.7943C0.0420793 12.8347 0.0666336 12.8715 0.0975929 12.9024C0.128552 12.9334 0.16531 12.958 0.205764 12.9747C0.246218 12.9915 0.289576 13.0001 0.333359 13H0.66668V14C0.667266 14.5521 1.11465 14.9995 1.66668 15H2.35996C2.52426 16.1477 3.5073 17 4.66668 17C5.82605 17 6.8091 16.1477 6.9734 15H13.0267C13.191 16.1477 14.174 17 15.3334 17C16.4928 17 17.4758 16.1477 17.6401 15H19C19.552 14.9995 19.9994 14.5521 20 14V9.5866C19.9998 9.34135 19.9093 9.10476 19.7459 8.92187ZM0.66668 12.3333V4C0.666752 3.91162 0.701893 3.82688 0.764387 3.76439C0.826881 3.70189 0.91162 3.66675 1 3.66668H12.6667C12.7551 3.66675 12.8398 3.70189 12.9023 3.76439C12.9648 3.82688 12.9999 3.91162 13 4V12.3333H0.66668ZM2.35996 14.3333H1.66668C1.5783 14.3332 1.49356 14.2981 1.43107 14.2356C1.36857 14.1731 1.33343 14.0884 1.33336 14V13H3.03688C2.67071 13.3579 2.43278 13.8265 2.35996 14.3333ZM4.66668 16.3333C3.74621 16.3333 3 15.5871 3 14.6666C3 13.7462 3.74621 13 4.66668 13C5.58715 13 6.33336 13.7462 6.33336 14.6667C6.33227 15.5867 5.58668 16.3323 4.66668 16.3333ZM8 14.3333H6.97336C6.90056 13.8265 6.66265 13.3579 6.29648 13H8V14.3333ZM11 14.3333H8.66668V13H11V14.3333ZM13.0266 14.3333H11.6667V13H13.7035C13.3374 13.3579 13.0994 13.8265 13.0266 14.3333ZM15.3333 16.3333C14.4129 16.3333 13.6666 15.5871 13.6666 14.6666C13.6666 13.7462 14.4128 13 15.3333 13C16.2538 13 17 13.7462 17 14.6666C16.9989 15.5867 16.2534 16.3323 15.3333 16.3333ZM19.3333 14C19.3332 14.0884 19.2981 14.1731 19.2356 14.2356C19.1731 14.2981 19.0884 14.3332 19 14.3333H17.64C17.4738 13.1867 16.492 12.3354 15.3333 12.3333H13.6666V6.66668H15V10C15.0006 10.552 15.448 10.9994 16 11H19.3333V14ZM19.3333 10.3333H16C15.9116 10.3332 15.8269 10.2981 15.7644 10.2356C15.7019 10.1731 15.6668 10.0884 15.6667 10V6.66668H16.7C16.7473 6.66641 16.7942 6.6762 16.8374 6.69539C16.8807 6.71458 16.9193 6.74274 16.9509 6.77801L19.2479 9.36492C19.3026 9.42585 19.333 9.50473 19.3334 9.5866L19.3333 10.3333Z" fill="#46C0A2"/>
</svg>
