<svg width="20" height="20" viewBox="0 0 20 20" fill="none" xmlns="http://www.w3.org/2000/svg">
<g clip-path="url(#clip0_19734_616)">
<path d="M19.2089 4.41295L10.1281 0.0291201C10.0884 0.00995399 10.0448 0 10.0007 0C9.95662 0 9.91308 0.00995399 9.87336 0.0291201L0.792539 4.41295C0.742923 4.4369 0.701068 4.47437 0.671778 4.52103C0.642489 4.5677 0.626953 4.62168 0.626953 4.67678V15.3232C0.626953 15.3783 0.642489 15.4323 0.671778 15.479C0.701068 15.5256 0.742923 15.5631 0.792539 15.5871L9.87332 19.9709C9.91305 19.99 9.95659 20 10.0007 20C10.0448 20 10.0884 19.99 10.1281 19.9709L19.2089 15.5871C19.2585 15.5631 19.3003 15.5256 19.3296 15.479C19.3589 15.4323 19.3745 15.3783 19.3745 15.3232V4.67682C19.3745 4.62171 19.3589 4.56773 19.3296 4.52106C19.3003 4.47438 19.2585 4.43691 19.2089 4.41295ZM10.0007 0.6183L18.4076 4.67678L15.9706 5.85326C15.9552 5.8412 15.9386 5.83073 15.921 5.82201L7.57121 1.79115L10.0007 0.6183ZM6.90957 2.1224L15.3043 6.17498L13.5849 7.00502L5.19371 2.95408L6.90957 2.1224ZM15.5007 6.73076V9.79896L13.8947 10.5743V7.50607L15.5007 6.73076ZM18.7885 15.1394L10.2937 19.2403V9.24447L12.32 8.26627C12.3546 8.24954 12.3856 8.22615 12.4112 8.19744C12.4368 8.16873 12.4565 8.13525 12.4692 8.09892C12.4819 8.0626 12.4873 8.02413 12.4851 7.98572C12.4829 7.94731 12.4731 7.9097 12.4564 7.87506C12.4397 7.84041 12.4163 7.8094 12.3876 7.78379C12.3589 7.75818 12.3254 7.73848 12.2891 7.72581C12.2527 7.71314 12.2143 7.70775 12.1759 7.70995C12.1374 7.71214 12.0998 7.72188 12.0652 7.73861L10.0007 8.73529L9.18836 8.34311C9.15372 8.32637 9.11611 8.31662 9.0777 8.31442C9.03929 8.31221 9.00082 8.3176 8.96449 8.33027C8.92815 8.34295 8.89468 8.36265 8.86597 8.38826C8.83725 8.41388 8.81387 8.4449 8.79715 8.47955C8.78042 8.5142 8.77068 8.5518 8.76848 8.59021C8.76629 8.62862 8.77168 8.66709 8.78435 8.70341C8.79702 8.73974 8.81672 8.77322 8.84233 8.80193C8.86794 8.83065 8.89895 8.85403 8.93359 8.87076L9.70774 9.24447V19.2403L1.21289 15.1393V5.14353L7.68164 8.26639C7.72127 8.28561 7.76474 8.2956 7.80879 8.29561C7.87518 8.29569 7.93963 8.27322 7.99158 8.23188C8.04353 8.19053 8.0799 8.13277 8.09472 8.06806C8.10955 8.00335 8.10195 7.93551 8.07318 7.87568C8.04441 7.81585 7.99617 7.76756 7.93637 7.73873L1.59379 4.67678L4.50414 3.27178L13.3047 7.52033C13.306 7.52213 13.3074 7.52373 13.3088 7.52549V11.0411C13.3088 11.0907 13.3214 11.1394 13.3454 11.1828C13.3694 11.2262 13.404 11.2628 13.446 11.2892C13.488 11.3155 13.536 11.3308 13.5855 11.3335C13.635 11.3363 13.6844 11.3264 13.7291 11.3049L15.921 10.2467C15.9706 10.2228 16.0125 10.1853 16.0418 10.1387C16.0711 10.092 16.0866 10.038 16.0866 9.98291V6.44795L18.7885 5.14357V15.1394Z" fill="#16A34A"/>
<path d="M3.62992 14.0031L2.29731 13.3598C2.22733 13.326 2.14681 13.3214 2.07344 13.347C2.00008 13.3726 1.93988 13.4263 1.9061 13.4962C1.87231 13.5662 1.86771 13.6467 1.8933 13.7201C1.91888 13.7935 1.97257 13.8537 2.04254 13.8874L3.37516 14.5308C3.41479 14.55 3.45826 14.56 3.50231 14.56C3.55744 14.56 3.61147 14.5445 3.65818 14.5152C3.70488 14.4859 3.74237 14.444 3.76633 14.3943C3.78306 14.3597 3.79281 14.3221 3.79501 14.2837C3.79721 14.2453 3.79183 14.2068 3.77916 14.1705C3.76649 14.1341 3.7468 14.1007 3.72119 14.0719C3.69558 14.0432 3.66457 14.0198 3.62992 14.0031ZM4.85637 13.2048L2.29914 11.9703C2.22934 11.9378 2.14954 11.934 2.07701 11.9599C2.00448 11.9858 1.94505 12.0392 1.91157 12.1085C1.8781 12.1779 1.87327 12.2576 1.89813 12.3305C1.92299 12.4034 1.97554 12.4635 2.04442 12.498L4.60164 13.7325C4.64128 13.7517 4.68475 13.7617 4.72879 13.7617C4.7952 13.7618 4.85967 13.7393 4.91163 13.698C4.9636 13.6567 4.99998 13.5989 5.0148 13.5342C5.02963 13.4694 5.02203 13.4016 4.99324 13.3417C4.96446 13.2819 4.9162 13.2336 4.85637 13.2048Z" fill="#16A34A"/>
</g>
<defs>
<clipPath id="clip0_19734_616">
<rect width="20" height="20" fill="white"/>
</clipPath>
</defs>
</svg>
