<svg width="20" height="20" viewBox="0 0 20 20" fill="none" xmlns="http://www.w3.org/2000/svg">
<path d="M10.625 9.16675C10.625 9.00099 10.5592 8.84202 10.4419 8.72481C10.3247 8.6076 10.1658 8.54175 10 8.54175C9.83424 8.54175 9.67527 8.6076 9.55806 8.72481C9.44085 8.84202 9.375 9.00099 9.375 9.16675V14.1667C9.375 14.3325 9.44085 14.4915 9.55806 14.6087C9.67527 14.7259 9.83424 14.7917 10 14.7917C10.1658 14.7917 10.3247 14.7259 10.4419 14.6087C10.5592 14.4915 10.625 14.3325 10.625 14.1667V9.16675Z" fill="#D97706"/>
<path fill-rule="evenodd" clip-rule="evenodd" d="M9.99935 1.04175C5.05185 1.04175 1.04102 5.05258 1.04102 10.0001C1.04102 14.9476 5.05185 18.9584 9.99935 18.9584C14.9468 18.9584 18.9577 14.9476 18.9577 10.0001C18.9577 5.05258 14.9468 1.04175 9.99935 1.04175ZM2.29102 10.0001C2.29102 7.9557 3.10314 5.99506 4.54873 4.54947C5.99433 3.10387 7.95497 2.29175 9.99935 2.29175C12.0437 2.29175 14.0044 3.10387 15.45 4.54947C16.8956 5.99506 17.7077 7.9557 17.7077 10.0001C17.7077 12.0445 16.8956 14.0051 15.45 15.4507C14.0044 16.8963 12.0437 17.7084 9.99935 17.7084C7.95497 17.7084 5.99433 16.8963 4.54873 15.4507C3.10314 14.0051 2.29102 12.0445 2.29102 10.0001Z" fill="#D97706"/>
<path d="M10.8327 6.66683C10.8327 6.88784 10.7449 7.0998 10.5886 7.25609C10.4323 7.41237 10.2204 7.50016 9.99935 7.50016C9.77834 7.50016 9.56637 7.41237 9.41009 7.25609C9.25381 7.0998 9.16602 6.88784 9.16602 6.66683C9.16602 6.44582 9.25381 6.23385 9.41009 6.07757C9.56637 5.92129 9.77834 5.8335 9.99935 5.8335C10.2204 5.8335 10.4323 5.92129 10.5886 6.07757C10.7449 6.23385 10.8327 6.44582 10.8327 6.66683Z" fill="#D97706"/>
</svg>
