<svg width="21" height="25" viewBox="0 0 21 25" fill="none" xmlns="http://www.w3.org/2000/svg">
<path d="M20.0632 19.1431C20.0632 19.1431 17.6823 13.1908 17.6823 9.61933C17.6823 5.72885 14.4299 2.47647 10.5394 2.47647C6.64896 2.47647 3.39658 5.72885 3.39658 9.61933C3.39658 14.3812 1.01562 19.1431 1.01562 19.1431H20.0632Z" stroke="#5D5D5D" stroke-width="1.5" stroke-linecap="round" stroke-linejoin="round"/>
<path d="M6.96875 19.1432V20.3337C6.96875 20.8027 7.06113 21.2671 7.24061 21.7005C7.4201 22.1337 7.68316 22.5274 8.0148 22.859C8.34649 23.1907 8.74018 23.4538 9.17339 23.6332C9.60673 23.8127 10.0711 23.9051 10.5402 23.9051C11.0092 23.9051 11.4736 23.8127 11.907 23.6332C12.3402 23.4538 12.7339 23.1907 13.0655 22.859C13.3972 22.5274 13.6603 22.1337 13.8397 21.7005C14.0192 21.2671 14.1116 20.8027 14.1116 20.3337V19.1432" stroke="#5D5D5D" stroke-width="1.5" stroke-linecap="round" stroke-linejoin="round"/>
<circle cx="15.8971" cy="4.2613" r="3.96667" fill="#EF0202" stroke="white" stroke-width="0.4"/>
</svg>
