<svg width="16" height="17" viewBox="0 0 16 17" fill="none" xmlns="http://www.w3.org/2000/svg">
<path d="M6.39812 7.62989H3.19828C2.89908 7.62989 2.61764 7.51309 2.40596 7.30077C2.19637 7.09089 2.07848 6.8065 2.07812 6.50989V3.30989C2.07812 3.01069 2.1946 2.72925 2.40596 2.51741C2.50977 2.41307 2.63326 2.33039 2.76927 2.27417C2.90528 2.21795 3.05111 2.1893 3.19828 2.18989H6.39812C6.69812 2.18989 6.97956 2.30621 7.19044 2.51741C7.29466 2.62134 7.37728 2.74487 7.43352 2.88089C7.48976 3.0169 7.51851 3.16271 7.51813 3.30989V6.50989C7.51813 6.80589 7.39828 7.09453 7.18932 7.30189C7.0857 7.40618 6.9624 7.48887 6.82659 7.54517C6.69078 7.60147 6.54515 7.63027 6.39812 7.62989ZM3.19828 2.82989C3.13531 2.82953 3.07289 2.8417 3.01466 2.86568C2.95643 2.88966 2.90355 2.92497 2.85909 2.96957C2.81423 3.01414 2.77867 3.06717 2.75448 3.12559C2.73028 3.18401 2.71792 3.24666 2.71812 3.30989V6.50989C2.71812 6.63645 2.769 6.75949 2.8578 6.84749C2.94996 6.93981 3.07044 6.98989 3.19828 6.98989H6.39812C6.52596 6.98989 6.64644 6.93981 6.73748 6.84861C6.78203 6.80415 6.81737 6.75136 6.8415 6.69324C6.86564 6.63512 6.87808 6.57282 6.87812 6.50989V3.30989C6.87812 3.18141 6.8282 3.06045 6.73732 2.96957C6.69286 2.92497 6.63998 2.88966 6.58175 2.86568C6.52352 2.8417 6.4611 2.82953 6.39812 2.82989H3.19828ZM6.39812 14.0299H3.19828C2.89908 14.0299 2.61764 13.9131 2.40596 13.7008C2.19637 13.4909 2.07848 13.2065 2.07812 12.9099V9.70989C2.07812 9.41069 2.1946 9.12925 2.40596 8.91741C2.50977 8.81307 2.63326 8.73039 2.76927 8.67417C2.90528 8.61795 3.05111 8.5893 3.19828 8.58989H6.39812C6.69812 8.58989 6.97956 8.70621 7.19044 8.91741C7.29466 9.02134 7.37728 9.14487 7.43352 9.28089C7.48976 9.4169 7.51851 9.56271 7.51813 9.70989V12.9099C7.51813 13.2059 7.39828 13.4945 7.18932 13.7019C7.0857 13.8062 6.9624 13.8889 6.82659 13.9452C6.69078 14.0015 6.54515 14.0303 6.39812 14.0299ZM3.19828 9.22989C3.13531 9.22953 3.07289 9.2417 3.01466 9.26568C2.95643 9.28966 2.90355 9.32497 2.85909 9.36957C2.81423 9.41414 2.77867 9.46717 2.75448 9.52559C2.73028 9.58401 2.71792 9.64666 2.71812 9.70989V12.9099C2.71812 13.0364 2.769 13.1595 2.8578 13.2475C2.94996 13.3398 3.07044 13.3899 3.19828 13.3899H6.39812C6.52596 13.3899 6.64644 13.3398 6.73748 13.2486C6.78203 13.2042 6.81737 13.1514 6.8415 13.0932C6.86564 13.0351 6.87808 12.9728 6.87812 12.9099V9.70989C6.87812 9.58141 6.8282 9.46045 6.73732 9.36957C6.69286 9.32497 6.63998 9.28966 6.58175 9.26568C6.52352 9.2417 6.4611 9.22953 6.39812 9.22989H3.19828ZM12.7981 7.62989H9.59828C9.29908 7.62989 9.01764 7.51309 8.80596 7.30077C8.59637 7.09089 8.47848 6.8065 8.47812 6.50989V3.30989C8.47812 3.01069 8.5946 2.72925 8.80596 2.51741C8.90977 2.41307 9.03326 2.33039 9.16927 2.27417C9.30528 2.21795 9.45111 2.1893 9.59828 2.18989H12.7981C13.0981 2.18989 13.3796 2.30621 13.5904 2.51741C13.6947 2.62134 13.7773 2.74487 13.8335 2.88089C13.8898 3.0169 13.9185 3.16271 13.9181 3.30989V6.50989C13.9181 6.80589 13.7983 7.09453 13.5893 7.30189C13.4857 7.40618 13.3624 7.48887 13.2266 7.54517C13.0908 7.60147 12.9451 7.63027 12.7981 7.62989ZM9.59828 2.82989C9.53531 2.82953 9.47289 2.8417 9.41466 2.86568C9.35643 2.88966 9.30355 2.92497 9.25908 2.96957C9.21423 3.01414 9.17867 3.06717 9.15447 3.12559C9.13028 3.18401 9.11792 3.24666 9.11812 3.30989V6.50989C9.11812 6.63645 9.169 6.75949 9.2578 6.84749C9.34997 6.93981 9.47044 6.98989 9.59828 6.98989H12.7981C12.926 6.98989 13.0464 6.93981 13.1375 6.84861C13.182 6.80415 13.2174 6.75136 13.2415 6.69324C13.2656 6.63512 13.2781 6.57282 13.2781 6.50989V3.30989C13.2781 3.18141 13.2282 3.06045 13.1373 2.96957C13.0929 2.92497 13.04 2.88966 12.9817 2.86568C12.9235 2.8417 12.8611 2.82953 12.7981 2.82989H9.59828ZM12.7981 14.0299H9.59828C9.29908 14.0299 9.01764 13.9131 8.80596 13.7008C8.59637 13.4909 8.47848 13.2065 8.47812 12.9099V9.70989C8.47812 9.41069 8.5946 9.12925 8.80596 8.91741C8.90977 8.81307 9.03326 8.73039 9.16927 8.67417C9.30528 8.61795 9.45111 8.5893 9.59828 8.58989H12.7981C13.0981 8.58989 13.3796 8.70621 13.5904 8.91741C13.6947 9.02134 13.7773 9.14487 13.8335 9.28089C13.8898 9.4169 13.9185 9.56271 13.9181 9.70989V12.9099C13.9181 13.2059 13.7983 13.4945 13.5893 13.7019C13.4857 13.8062 13.3624 13.8889 13.2266 13.9452C13.0908 14.0015 12.9451 14.0303 12.7981 14.0299ZM9.59828 9.22989C9.53531 9.22953 9.47289 9.2417 9.41466 9.26568C9.35643 9.28966 9.30355 9.32497 9.25908 9.36957C9.21423 9.41414 9.17867 9.46717 9.15447 9.52559C9.13028 9.58401 9.11792 9.64666 9.11812 9.70989V12.9099C9.11812 13.0364 9.169 13.1595 9.2578 13.2475C9.34997 13.3398 9.47044 13.3899 9.59828 13.3899H12.7981C12.926 13.3899 13.0464 13.3398 13.1375 13.2486C13.182 13.2042 13.2174 13.1514 13.2415 13.0932C13.2656 13.0351 13.2781 12.9728 13.2781 12.9099V9.70989C13.2781 9.58141 13.2282 9.46045 13.1373 9.36957C13.0929 9.32497 13.04 9.28966 12.9817 9.26568C12.9235 9.2417 12.8611 9.22953 12.7981 9.22989H9.59828Z" fill="#7B7B7B"/>
</svg>
