<svg width="16" height="17" viewBox="0 0 16 17" fill="none" xmlns="http://www.w3.org/2000/svg">
<g clip-path="url(#clip0_19697_772)">
<path d="M15.3655 3.64016L8.10091 0.133098C8.06913 0.117765 8.0343 0.109802 7.99902 0.109802C7.96373 0.109802 7.9289 0.117765 7.89713 0.133098L0.632469 3.64016C0.592776 3.65933 0.559292 3.68929 0.53586 3.72663C0.512429 3.76396 0.5 3.80715 0.5 3.85122V12.3684C0.5 12.4125 0.512429 12.4556 0.53586 12.493C0.559292 12.5303 0.592776 12.5603 0.632469 12.5794L7.89709 16.0865C7.92888 16.1018 7.96371 16.1098 7.999 16.1098C8.03429 16.1098 8.06912 16.1018 8.10091 16.0865L15.3655 12.5794C15.4052 12.5603 15.4387 12.5303 15.4621 12.493C15.4856 12.4556 15.498 12.4125 15.498 12.3684V3.85125C15.498 3.80717 15.4856 3.76399 15.4621 3.72665C15.4387 3.68931 15.4052 3.65933 15.3655 3.64016ZM7.999 0.604442L14.7245 3.85122L12.7749 4.79241C12.7626 4.78276 12.7493 4.77438 12.7352 4.76741L6.05541 1.54272L7.999 0.604442ZM5.52609 1.80772L12.2418 5.04979L10.8664 5.71382L4.15341 2.47307L5.52609 1.80772ZM12.399 5.49441V7.94897L11.1142 8.56922V6.11466L12.399 5.49441ZM15.0292 12.2213L8.23338 15.502V7.50538L9.85441 6.72282C9.88212 6.70943 9.90693 6.69072 9.92742 6.66775C9.9479 6.64478 9.96367 6.618 9.9738 6.58894C9.98394 6.55988 9.98825 6.5291 9.98649 6.49838C9.98474 6.46765 9.97694 6.43757 9.96356 6.40985C9.95018 6.38213 9.93147 6.35732 9.9085 6.33684C9.88553 6.31635 9.85875 6.30059 9.82968 6.29045C9.80062 6.28032 9.76985 6.276 9.73912 6.27776C9.70839 6.27952 9.67831 6.28731 9.65059 6.30069L7.999 7.09804L7.34912 6.78429C7.32141 6.77089 7.29133 6.7631 7.2606 6.76133C7.22987 6.75957 7.19909 6.76388 7.17002 6.77402C7.14096 6.78416 7.11418 6.79992 7.09121 6.82041C7.06824 6.8409 7.04953 6.86572 7.03616 6.89344C7.02277 6.92116 7.01498 6.95124 7.01322 6.98197C7.01147 7.0127 7.01578 7.04347 7.02592 7.07253C7.03605 7.1016 7.05181 7.12838 7.0723 7.15135C7.09279 7.17432 7.1176 7.19303 7.14531 7.20641L7.76463 7.50538V15.502L0.96875 12.2213V4.22463L6.14375 6.72291C6.17546 6.73829 6.21023 6.74628 6.24547 6.74629C6.29858 6.74635 6.35014 6.72837 6.3917 6.6953C6.43326 6.66223 6.46235 6.61602 6.47421 6.56425C6.48608 6.51248 6.48 6.45821 6.45698 6.41035C6.43397 6.36248 6.39538 6.32385 6.34753 6.30079L1.27347 3.85122L3.60175 2.72722L10.6422 6.12607C10.6432 6.1275 10.6444 6.12879 10.6454 6.13019V8.94266C10.6455 8.98233 10.6555 9.02135 10.6747 9.05606C10.6939 9.09077 10.7216 9.12004 10.7552 9.14113C10.7888 9.16222 10.8272 9.17444 10.8669 9.17664C10.9065 9.17884 10.946 9.17096 10.9817 9.15372L12.7352 8.30719C12.7749 8.28803 12.8084 8.25806 12.8319 8.22073C12.8553 8.18339 12.8677 8.14021 12.8677 8.09613V5.26816L15.0292 4.22466V12.2213Z" fill="#7B7B7B"/>
<path d="M2.90238 11.3127L1.83628 10.798C1.78031 10.771 1.71588 10.7673 1.65719 10.7878C1.5985 10.8083 1.55034 10.8512 1.52331 10.9072C1.49629 10.9632 1.4926 11.0276 1.51307 11.0863C1.53354 11.145 1.57649 11.1931 1.63247 11.2202L2.69856 11.7348C2.73027 11.7502 2.76505 11.7582 2.80028 11.7582C2.84439 11.7582 2.88762 11.7458 2.92498 11.7223C2.96234 11.6989 2.99233 11.6654 3.0115 11.6257C3.02489 11.5979 3.03269 11.5679 3.03445 11.5371C3.03621 11.5064 3.0319 11.4756 3.02177 11.4466C3.01163 11.4175 2.99587 11.3907 2.97539 11.3677C2.9549 11.3448 2.93009 11.3261 2.90238 11.3127ZM3.88353 10.674L1.83775 9.6864C1.78191 9.66039 1.71807 9.65742 1.66004 9.67811C1.60202 9.69881 1.55448 9.74152 1.5277 9.797C1.50092 9.85247 1.49705 9.91627 1.51694 9.97457C1.53683 10.0329 1.57887 10.081 1.63397 10.1086L3.67975 11.0962C3.71146 11.1115 3.74624 11.1195 3.78147 11.1196C3.83459 11.1196 3.88617 11.1017 3.92774 11.0686C3.96932 11.0355 3.99842 10.9893 4.01028 10.9375C4.02214 10.8857 4.01606 10.8315 3.99303 10.7836C3.97 10.7357 3.93139 10.6971 3.88353 10.674Z" fill="#7B7B7B"/>
</g>
<defs>
<clipPath id="clip0_19697_772">
<rect width="16" height="16" fill="white" transform="translate(0 0.109802)"/>
</clipPath>
</defs>
</svg>
