<svg width="54" height="55" viewBox="0 0 54 55" fill="none" xmlns="http://www.w3.org/2000/svg">
<g clip-path="url(#clip0_19550_3141)">
<path d="M16.453 39.7461C15.8708 39.7461 15.3983 40.2186 15.3983 40.8008C15.3983 41.383 15.8708 41.8555 16.453 41.8555C17.0352 41.8555 17.5077 41.383 17.5077 40.8008C17.5077 40.2186 17.0352 39.7461 16.453 39.7461Z" fill="#6DA015"/>
<path d="M47.476 20.7616L53.6912 14.5464C53.8197 14.4179 53.9128 14.2583 53.9615 14.0832C54.0102 13.9081 54.0128 13.7233 53.9691 13.5469C53.9253 13.3705 53.8367 13.2083 53.7119 13.0762C53.587 12.9441 53.4301 12.8465 53.2565 12.7929L38.1217 8.12171C36.7573 3.73621 32.7023 0.722656 28.0546 0.722656C23.7342 0.722656 19.8702 3.35568 18.271 7.32764L0.740607 12.7939C0.567313 12.8479 0.410898 12.9458 0.286497 13.0779C0.162096 13.2101 0.0739187 13.3722 0.030497 13.5485C-0.0129246 13.7247 -0.0101208 13.9092 0.0386371 14.084C0.087395 14.2589 0.180456 14.4182 0.308818 14.5466L6.68746 20.9252L2.66446 27.6304C2.58322 27.7658 2.53343 27.9178 2.51877 28.075C2.5041 28.2323 2.52494 28.3908 2.57973 28.5389C2.63453 28.687 2.72189 28.821 2.83537 28.9308C2.94884 29.0407 3.08554 29.1236 3.23536 29.1736L9.07021 31.1184V47.3397C9.07022 47.5544 9.13575 47.764 9.25804 47.9405C9.38034 48.1169 9.55357 48.2519 9.7546 48.3272C13.3223 49.665 26.5781 54.6366 26.6493 54.6618C26.8671 54.739 27.1043 54.7423 27.3241 54.6712C27.3272 54.6701 27.3303 54.6695 27.3334 54.6684L46.3178 48.3403C46.5278 48.2703 46.7104 48.136 46.8399 47.9564C46.9693 47.7769 47.0389 47.5611 47.039 47.3397V30.6841L53.2614 28.7287C53.4344 28.6744 53.5905 28.5763 53.7145 28.4441C53.8386 28.3119 53.9264 28.1499 53.9696 27.9738C54.0128 27.7976 54.0099 27.6134 53.9611 27.4387C53.9123 27.2641 53.8193 27.105 53.6911 26.9768L47.476 20.7616ZM38.6015 11.2695C38.6015 11.0015 38.5902 10.7342 38.57 10.4677L50.962 14.2925L45.6994 19.5549L37.1007 16.689C38.0744 15.0616 38.6015 13.1836 38.6015 11.2695ZM20.0735 8.52439C21.2443 5.11965 24.4517 2.83203 28.0546 2.83203C31.9359 2.83203 35.3023 5.45736 36.2409 9.21627C36.408 9.88788 36.4924 10.5774 36.4921 11.2695C36.4921 13.2285 35.842 15.0646 34.6118 16.5801C33.0005 18.5673 30.6105 19.707 28.0546 19.707C25.2917 19.707 22.7003 18.3509 21.1218 16.0785C20.1375 14.6646 19.6171 13.0015 19.6171 11.2695C19.6171 10.3276 19.7705 9.404 20.0735 8.52439ZM3.03371 14.2884L17.62 9.74013C17.5458 10.2465 17.5083 10.7576 17.5077 11.2694C17.5077 12.9676 17.91 14.6124 18.6767 16.0964L8.3004 19.5549L3.03371 14.2884ZM5.14973 27.5882L8.48465 22.0298L25.419 27.6746L22.0842 33.233L5.14973 27.5882ZM25.9452 52.1461L11.1796 46.6089V31.8216C22.797 35.6735 22.2297 35.5559 22.5531 35.5559C22.9157 35.5559 23.2629 35.3683 23.4577 35.0438L25.9452 30.8977V52.1461ZM26.9999 25.9781L11.3509 20.7618L19.8721 17.9216C21.8665 20.3734 24.8689 21.8164 28.0546 21.8164C31.0016 21.8164 33.7713 20.6036 35.7635 18.4668L42.6489 20.7617L26.9999 25.9781ZM44.9296 46.5796L28.0546 52.2046V30.0962L31.7936 34.7695C31.9264 34.9356 32.1063 35.0576 32.3097 35.1195C32.5131 35.1815 32.7305 35.1806 32.9334 35.1169L44.9296 31.3471V46.5796ZM32.9897 32.8882L28.7684 27.612L45.6994 21.9684L50.969 27.238L32.9897 32.8882Z" fill="#6DA015"/>
<path d="M23.1519 42.0872L20.8063 41.2076C20.2609 41.0032 19.653 41.2794 19.4484 41.8248C19.2439 42.3703 19.5202 42.9782 20.0656 43.1827L22.4112 44.0623C22.9578 44.2671 23.5649 43.9895 23.7691 43.4451C23.9736 42.8997 23.6973 42.2917 23.1519 42.0872ZM23.1518 46.5928L16.8237 44.2198C16.2783 44.0153 15.6704 44.2916 15.4658 44.837C15.2612 45.3824 15.5376 45.9904 16.083 46.1949L22.4111 48.5679C22.5295 48.6125 22.6549 48.6354 22.7813 48.6354C23.2084 48.6354 23.6102 48.3742 23.769 47.9507C23.9736 47.4052 23.6973 46.7973 23.1518 46.5928ZM34.0743 7.35971C33.6624 6.94775 32.9946 6.94786 32.5826 7.35971L27.0003 12.9422L25.6367 11.5786C25.2248 11.1667 24.557 11.1667 24.145 11.5786C23.7331 11.9904 23.7332 12.6583 24.145 13.0702L26.2545 15.1795C26.6664 15.5913 27.3342 15.5913 27.7461 15.1795L34.0743 8.85136C34.4861 8.4395 34.4861 7.77167 34.0743 7.35971Z" fill="#6DA015"/>
</g>
<defs>
<clipPath id="clip0_19550_3141">
<rect width="54" height="54" fill="white" transform="translate(0 0.722412)"/>
</clipPath>
</defs>
</svg>
