<svg width="16" height="17" viewBox="0 0 16 17" fill="none" xmlns="http://www.w3.org/2000/svg">
<g clip-path="url(#clip0_19697_784)">
<path d="M15.2725 8.17691V5.92814C15.2725 5.1656 14.681 4.54547 13.9337 4.48533L11.8454 0.837663C11.6518 0.500305 11.3393 0.259184 10.9654 0.159061C10.5932 0.059619 10.2041 0.111845 9.87096 0.305717L2.71189 4.4736H1.45453C0.652353 4.4736 0 5.12592 0 5.92814V14.6553C0 15.4574 0.652319 16.1098 1.45453 16.1098H13.818C14.6202 16.1098 15.2725 15.4575 15.2725 14.6553V12.4065C15.6949 12.2559 15.9998 11.856 15.9998 11.3826V9.20081C15.9998 8.72736 15.6949 8.32752 15.2725 8.17691ZM13.0887 4.4736H9.91927L12.2964 3.08967L13.0887 4.4736ZM11.935 2.45856L8.47387 4.4736H7.03823L11.5761 1.8316L11.935 2.45856ZM10.2371 0.934241C10.4015 0.838004 10.5936 0.812436 10.7772 0.861458C10.9629 0.911162 11.1178 1.03119 11.214 1.19916L11.2147 1.20049L5.5929 4.4736H4.15732L10.2371 0.934241ZM14.5452 14.6553C14.5452 15.0562 14.2189 15.3825 13.818 15.3825H1.45453C1.05363 15.3825 0.727284 15.0562 0.727284 14.6553V5.92814C0.727284 5.52723 1.05363 5.20089 1.45453 5.20089H13.818C14.2189 5.20089 14.5452 5.52723 14.5452 5.92814V8.10992H12.3634C11.1603 8.10992 10.1817 9.08859 10.1817 10.2917C10.1817 11.4948 11.1603 12.4735 12.3634 12.4735H14.5452V14.6553ZM15.2725 11.3826C15.2725 11.5832 15.1095 11.7462 14.9089 11.7462H12.3634C11.5613 11.7462 10.9089 11.0939 10.9089 10.2917C10.9089 9.48952 11.5612 8.83717 12.3634 8.83717H14.9089C15.1095 8.83717 15.2725 9.00016 15.2725 9.20081V11.3826Z" fill="#7B7B7B"/>
<path d="M12.3601 9.56488C11.9592 9.56488 11.6328 9.89123 11.6328 10.2921C11.6328 10.693 11.9592 11.0194 12.3601 11.0194C12.761 11.0194 13.0873 10.693 13.0873 10.2921C13.0873 9.89123 12.761 9.56488 12.3601 9.56488Z" fill="#7B7B7B"/>
</g>
<defs>
<clipPath id="clip0_19697_784">
<rect width="16" height="16" fill="white" transform="translate(0 0.109802)"/>
</clipPath>
</defs>
</svg>
