<svg width="24" height="24" viewBox="0 0 24 24" fill="none" xmlns="http://www.w3.org/2000/svg">
<path d="M12.6821 16.8064H3.37462C3.07635 16.8061 2.79037 16.6874 2.57946 16.4765C2.36854 16.2656 2.24992 15.9796 2.24963 15.6814V8.43561H19.5514V10.1167C19.5514 10.2162 19.5909 10.3116 19.6612 10.3819C19.7315 10.4522 19.8269 10.4917 19.9264 10.4917C20.0258 10.4917 20.1212 10.4522 20.1915 10.3819C20.2619 10.3116 20.3014 10.2162 20.3014 10.1167V5.78924C20.3007 5.2922 20.1029 4.81573 19.7514 4.46431C19.3999 4.11289 18.9234 3.91521 18.4264 3.91461H3.375C2.8779 3.91521 2.40133 4.11294 2.04983 4.46444C1.69833 4.81595 1.5006 5.29251 1.5 5.78961V15.6814C1.5006 16.1785 1.69833 16.655 2.04983 17.0065C2.40133 17.358 2.8779 17.5558 3.375 17.5564H12.6821C12.7816 17.5564 12.877 17.5169 12.9473 17.4465C13.0176 17.3762 13.0571 17.2808 13.0571 17.1814C13.0571 17.0819 13.0176 16.9865 12.9473 16.9162C12.877 16.8459 12.7816 16.8064 12.6821 16.8064ZM2.24963 5.78999C2.24992 5.49171 2.36854 5.20573 2.57946 4.99482C2.79037 4.78391 3.07635 4.66528 3.37462 4.66499H18.4264C18.7247 4.66528 19.0106 4.78391 19.2215 4.99482C19.4325 5.20573 19.5511 5.49171 19.5514 5.78999V6.34874H2.25L2.24963 5.78999ZM2.24963 7.09874H19.5514V7.68599H2.25L2.24963 7.09874Z" fill="#46C0A2"/>
<path d="M4.21484 14.3704C4.11539 14.3704 4.02 14.4099 3.94968 14.4802C3.87935 14.5505 3.83984 14.6459 3.83984 14.7454C3.83984 14.8448 3.87935 14.9402 3.94968 15.0105C4.02 15.0809 4.11539 15.1204 4.21484 15.1204H6.88859C6.98805 15.1204 7.08343 15.0809 7.15376 15.0105C7.22408 14.9402 7.26359 14.8448 7.26359 14.7454C7.26359 14.6459 7.22408 14.5505 7.15376 14.4802C7.08343 14.4099 6.98805 14.3704 6.88859 14.3704H4.21484ZM22.3446 12.5422C22.2996 12.3277 22.2771 12.0472 22.0285 11.9756L17.9485 10.6627C17.8737 10.639 17.7934 10.639 17.7186 10.6627L13.6393 11.9756C13.3918 12.0484 13.3693 12.3266 13.3228 12.5419C12.7225 15.5445 13.8936 18.2336 16.306 19.3924L17.6713 20.0486C17.722 20.073 17.7775 20.0857 17.8337 20.0857C17.8899 20.0857 17.9454 20.073 17.9961 20.0486L19.3618 19.3924C21.7742 18.2336 22.945 15.5449 22.3446 12.5422ZM19.0371 18.7166L17.8337 19.2941L16.6303 18.7166C14.5176 17.7079 13.5092 15.2839 14.0717 12.6244L17.8337 11.4135L21.5961 12.6244C22.1575 15.2846 21.1495 17.7082 19.0371 18.7166Z" fill="#46C0A2"/>
<path d="M19.6483 14.0823L17.6615 15.8523L16.7859 14.9771C16.7152 14.9088 16.6205 14.871 16.5221 14.8718C16.4238 14.8727 16.3298 14.9121 16.2602 14.9817C16.1907 15.0512 16.1513 15.1452 16.1504 15.2436C16.1496 15.3419 16.1873 15.4366 16.2557 15.5073L17.3814 16.6331C17.4491 16.7008 17.54 16.74 17.6357 16.7428C17.7313 16.7456 17.8244 16.7117 17.8959 16.6481L20.147 14.6422C20.2187 14.5754 20.2614 14.4832 20.2659 14.3853C20.2705 14.2874 20.2365 14.1916 20.1713 14.1185C20.1061 14.0453 20.0149 14.0006 19.9172 13.9938C19.8194 13.9871 19.7229 14.0188 19.6483 14.0823Z" fill="#46C0A2"/>
</svg>
