<svg width="54" height="55" viewBox="0 0 54 55" fill="none" xmlns="http://www.w3.org/2000/svg">
<path d="M26.6786 16.1511C24.322 16.1473 22.0146 16.8264 20.0358 18.1064C18.057 19.3864 16.4916 21.2123 15.5288 23.3634C14.566 25.5145 14.2472 27.8984 14.611 30.2269C14.9747 32.5553 16.0054 34.7285 17.5784 36.4834L15.3232 39.8661C15.134 40.1498 15.0652 40.4971 15.132 40.8315C15.1988 41.166 15.3957 41.4602 15.6794 41.6494C15.9631 41.8387 16.3103 41.9075 16.6448 41.8407C16.9792 41.7739 17.2734 41.577 17.4626 41.2933L19.5044 38.2294C21.5848 39.7563 24.0981 40.5796 26.6786 40.5796C29.2592 40.5796 31.7725 39.7563 33.8529 38.2294L35.8946 41.2933C36.0839 41.577 36.3781 41.7739 36.7125 41.8407C37.047 41.9075 37.3942 41.8387 37.6779 41.6494C37.9616 41.4602 38.1585 41.166 38.2253 40.8315C38.2921 40.4971 38.2233 40.1498 38.0341 39.8661L35.7789 36.4834C37.3519 34.7285 38.3826 32.5553 38.7463 30.2269C39.1101 27.8984 38.7913 25.5145 37.8285 23.3634C36.8657 21.2123 35.3003 19.3864 33.3215 18.1064C31.3427 16.8264 29.0353 16.1473 26.6786 16.1511ZM17.0358 28.3654C17.0358 26.4582 17.6013 24.5939 18.6609 23.0081C19.7205 21.4224 21.2265 20.1864 22.9885 19.4566C24.7505 18.7267 26.6893 18.5358 28.5599 18.9079C30.4304 19.2799 32.1486 20.1983 33.4972 21.5469C34.8458 22.8955 35.7642 24.6137 36.1362 26.4842C36.5083 28.3547 36.3173 30.2936 35.5875 32.0556C34.8576 33.8176 33.6217 35.3236 32.0359 36.3832C30.4502 37.4427 28.5858 38.0083 26.6786 38.0083C24.122 38.0056 21.6709 36.9887 19.8631 35.1809C18.0553 33.3732 17.0385 30.922 17.0358 28.3654Z" fill="#6DA015"/>
<path d="M35.302 13.9564C35.0595 13.7222 34.7347 13.5926 34.3976 13.5955C34.0605 13.5984 33.738 13.7337 33.4996 13.972C33.2612 14.2104 33.126 14.5329 33.1231 14.87C33.1202 15.2071 33.2498 15.5319 33.484 15.7744L38.6268 20.9172C38.8693 21.1514 39.1941 21.281 39.5312 21.2781C39.8683 21.2752 40.1908 21.14 40.4292 20.9016C40.6675 20.6632 40.8028 20.3407 40.8057 20.0036C40.8086 19.6665 40.679 19.3417 40.4448 19.0992L35.302 13.9564Z" fill="#6DA015"/>
<path d="M15.3746 20.2744L19.8746 15.7744C20.1088 15.5319 20.2384 15.2071 20.2354 14.87C20.2325 14.5329 20.0973 14.2104 19.8589 13.972C19.6205 13.7337 19.2981 13.5984 18.9609 13.5955C18.6238 13.5926 18.2991 13.7222 18.0566 13.9564L13.5566 18.4564C13.4338 18.575 13.3358 18.7168 13.2684 18.8737C13.2011 19.0306 13.1656 19.1993 13.1641 19.37C13.1626 19.5407 13.1952 19.71 13.2598 19.868C13.3245 20.026 13.4199 20.1696 13.5406 20.2903C13.6614 20.411 13.8049 20.5065 13.9629 20.5711C14.1209 20.6358 14.2902 20.6683 14.4609 20.6668C14.6317 20.6654 14.8004 20.6299 14.9572 20.5625C15.1141 20.4951 15.256 20.3972 15.3746 20.2744Z" fill="#6DA015"/>
<path d="M31.5006 27.0798H28.2863V23.8655C28.2863 23.5246 28.1508 23.1975 27.9097 22.9564C27.6686 22.7153 27.3416 22.5798 27.0006 22.5798C26.6596 22.5798 26.3325 22.7153 26.0914 22.9564C25.8503 23.1975 25.7148 23.5246 25.7148 23.8655V27.0798H22.5006C22.1596 27.0798 21.8325 27.2153 21.5914 27.4564C21.3503 27.6975 21.2148 28.0246 21.2148 28.3655C21.2148 28.7065 21.3503 29.0336 21.5914 29.2747C21.8325 29.5158 22.1596 29.6513 22.5006 29.6513H25.7148V32.8655C25.7148 33.2065 25.8503 33.5336 26.0914 33.7747C26.3325 34.0158 26.6596 34.1513 27.0006 34.1513C27.3416 34.1513 27.6686 34.0158 27.9097 33.7747C28.1508 33.5336 28.2863 33.2065 28.2863 32.8655V29.6513H31.5006C31.8416 29.6513 32.1686 29.5158 32.4097 29.2747C32.6508 29.0336 32.7863 28.7065 32.7863 28.3655C32.7863 28.0246 32.6508 27.6975 32.4097 27.4564C32.1686 27.2153 31.8416 27.0798 31.5006 27.0798Z" fill="#6DA015"/>
<path d="M27.0008 3.2937C22.1693 3.2937 17.4463 4.72641 13.4291 7.41066C9.4118 10.0949 6.28073 13.9101 4.43179 18.3739C2.58285 22.8376 2.09908 27.7494 3.04166 32.4881C3.98425 37.2267 6.31084 41.5795 9.72724 44.9959C13.1436 48.4123 17.4964 50.7389 22.2351 51.6815C26.9737 52.624 31.8855 52.1403 36.3493 50.2913C40.813 48.4424 44.6282 45.3113 47.3125 41.2941C49.9967 37.2768 51.4294 32.5538 51.4294 27.7223C51.4223 21.2456 48.8463 15.0363 44.2666 10.4566C39.6869 5.87686 33.4775 3.30085 27.0008 3.2937ZM27.0008 49.5794C22.6779 49.5794 18.4521 48.2975 14.8577 45.8958C11.2633 43.4941 8.4618 40.0805 6.80748 36.0866C5.15317 32.0928 4.72032 27.698 5.56368 23.4582C6.40705 19.2183 8.48874 15.3237 11.5455 12.2669C14.6023 9.21016 18.4969 7.12847 22.7367 6.28511C26.9766 5.44175 31.3713 5.87459 35.3652 7.52891C39.3591 9.18322 42.7727 11.9847 45.1744 15.5791C47.5761 19.1735 48.858 23.3993 48.858 27.7223C48.8515 33.5172 46.5467 39.0729 42.449 43.1705C38.3514 47.2681 32.7957 49.5729 27.0008 49.5794Z" fill="#6DA015"/>
</svg>
