<svg width="54" height="55" viewBox="0 0 54 55" fill="none" xmlns="http://www.w3.org/2000/svg">
<path d="M27.2912 52.2966H26.7102C26.1684 52.2969 25.6309 52.1997 25.1236 52.0096C19.5237 49.9145 15.0241 46.5191 11.7495 41.9177C9.17809 38.3043 7.39458 33.9847 6.44863 29.0791C4.88836 20.9875 6.15182 13.9736 6.20637 13.679C6.48573 12.1705 7.49757 10.9169 8.91307 10.3255L25.2553 3.49814C25.8111 3.26592 26.3983 3.14819 27.0007 3.14819C27.6031 3.14819 28.1903 3.26592 28.7461 3.49811L45.0883 10.3255C46.5038 10.9169 47.5156 12.1705 47.7949 13.6789C47.8495 13.9736 49.1128 20.9884 47.5527 29.079C46.6067 33.9847 44.8232 38.3042 42.2518 41.9177C38.9773 46.5191 34.4776 49.9145 28.8777 52.0095C28.3704 52.1997 27.833 52.297 27.2912 52.2966ZM27.0007 4.83569C26.6247 4.83531 26.2525 4.90993 25.9058 5.0552L9.56357 11.8826C8.67563 12.2535 8.0409 13.0399 7.86566 13.9862C7.81348 14.268 6.60502 20.9776 8.1056 28.7595C9.00549 33.4262 10.6941 37.5241 13.1244 40.9393C16.2001 45.2613 20.4362 48.4541 25.7149 50.429C26.0331 50.5483 26.3703 50.6093 26.7101 50.6091H27.2912C27.6322 50.6091 27.967 50.5485 28.2865 50.429C33.5652 48.4541 37.8012 45.2613 40.8769 40.9393C43.3073 37.5241 44.9958 33.4262 45.8957 28.7595C47.3962 20.9784 46.1878 14.2679 46.1357 13.9861C45.9604 13.0399 45.3257 12.2535 44.4377 11.8826L28.0956 5.05517C27.7488 4.90992 27.3766 4.83531 27.0007 4.83569Z" fill="#6DA015"/>
<path d="M27.292 48.6121H26.7109C26.6099 48.6121 26.5098 48.5939 26.4153 48.5586C21.5165 46.7259 17.5924 43.7727 14.7519 39.7812C12.4885 36.6006 10.9122 32.765 10.0668 28.381C9.31943 24.5052 9.29348 20.9055 9.4033 18.5681C9.52267 16.0284 9.81711 14.4166 9.82958 14.3493C9.8551 14.2114 9.91459 14.0821 10.0027 13.973C10.0907 13.8639 10.2046 13.7784 10.334 13.7244L26.6761 6.89701C26.7792 6.85396 26.8897 6.83179 27.0014 6.83179C27.113 6.83179 27.2236 6.85396 27.3266 6.89701L43.6688 13.7244C43.7982 13.7784 43.912 13.8639 44.0001 13.973C44.0882 14.0821 44.1477 14.2114 44.1732 14.3493C44.1857 14.4167 44.4801 16.0284 44.5995 18.5681C44.7093 20.9055 44.6834 24.5052 43.936 28.381C43.0906 32.765 41.5143 36.6006 39.2509 39.7812C36.4104 43.7727 32.4863 46.7259 27.5875 48.5586C27.493 48.594 27.3929 48.6121 27.292 48.6121ZM26.8647 46.9246H27.1381C35.3757 43.7926 40.4692 37.4471 42.279 28.0615C43.4396 22.0432 42.8111 16.6486 42.5845 15.1002L27.0014 8.58996L11.4181 15.1003C11.3249 15.7341 11.1639 17.0109 11.0866 18.6984C10.9837 20.9449 11.0125 24.4015 11.7334 28.111C13.5521 37.4696 18.6422 43.7984 26.8647 46.9246Z" fill="#6DA015"/>
<path d="M31.067 38.1665H22.9338C20.7496 38.1665 18.9727 36.3895 18.9727 34.2051V27.5959C18.9727 25.4116 20.7496 23.6345 22.9338 23.6345H31.067C33.2512 23.6345 35.0281 25.4116 35.0281 27.5959V34.2051C35.0282 36.3895 33.2512 38.1665 31.067 38.1665ZM22.9338 25.322C21.6801 25.322 20.6602 26.3421 20.6602 27.5959V34.2051C20.6602 35.459 21.6801 36.479 22.9338 36.479H31.067C32.3207 36.479 33.3406 35.4589 33.3406 34.2051V27.5959C33.3406 26.3421 32.3207 25.322 31.067 25.322H22.9338ZM27.0004 31.9088C25.7114 31.9088 24.6627 30.8601 24.6627 29.5711C24.6627 28.2819 25.7114 27.2331 27.0004 27.2331C28.2894 27.2331 29.3381 28.2819 29.3381 29.5711C29.3381 30.8601 28.2894 31.9088 27.0004 31.9088ZM27.0004 28.9206C26.6419 28.9206 26.3502 29.2124 26.3502 29.5711C26.3502 29.9296 26.6419 30.2213 27.0004 30.2213C27.3589 30.2213 27.6506 29.9296 27.6506 29.5711C27.6506 29.2124 27.359 28.9206 27.0004 28.9206Z" fill="#6DA015"/>
<path d="M32.2547 25.3228C31.7887 25.3228 31.411 24.9451 31.411 24.4791V21.8947C31.411 19.4627 29.4324 17.4841 27.0004 17.4841C24.5684 17.4841 22.5898 19.4627 22.5898 21.8947V24.4791C22.5898 24.9451 22.2121 25.3228 21.7461 25.3228C21.2801 25.3228 20.9023 24.9451 20.9023 24.4791V21.8947C20.9023 20.2658 21.5367 18.7345 22.6884 17.5827C23.8402 16.4309 25.3716 15.7966 27.0004 15.7966C28.6292 15.7966 30.1606 16.4309 31.3124 17.5827C32.4642 18.7345 33.0985 20.2658 33.0985 21.8947V24.4791C33.0985 24.9451 32.7207 25.3228 32.2547 25.3228ZM27.0004 34.4278C26.5344 34.4278 26.1567 34.0501 26.1567 33.5841V31.0657C26.1567 30.5998 26.5344 30.222 27.0004 30.222C27.4664 30.222 27.8442 30.5998 27.8442 31.0657V33.5841C27.8442 34.0501 27.4664 34.4278 27.0004 34.4278Z" fill="#6DA015"/>
</svg>
