<svg width="16" height="17" viewBox="0 0 16 17" fill="none" xmlns="http://www.w3.org/2000/svg">
<path d="M7.33335 2.1102C7.33332 2.02265 7.35055 1.93594 7.38404 1.85505C7.41754 1.77416 7.46664 1.70066 7.52855 1.63875C7.59046 1.57684 7.66396 1.52773 7.74485 1.49424C7.82575 1.46074 7.91245 1.44352 8 1.44354L10.6667 1.44354C11.5504 1.44458 12.3976 1.79609 13.0225 2.42099C13.6474 3.04588 13.999 3.89312 14 4.77686L14 11.4435C13.999 12.3273 13.6474 13.1745 13.0225 13.7994C12.3976 14.4243 11.5504 14.7758 10.6667 14.7769L8 14.7769C7.82319 14.7769 7.65363 14.7066 7.5286 14.5816C7.40358 14.4566 7.33334 14.287 7.33334 14.1102C7.33334 13.9334 7.40358 13.7638 7.5286 13.6388C7.65363 13.5138 7.82319 13.4435 8 13.4435L10.6667 13.4435C11.1969 13.443 11.7053 13.2321 12.0802 12.8571C12.4552 12.4822 12.6661 11.9738 12.6667 11.4435L12.6667 4.77686C12.6661 4.2466 12.4552 3.73823 12.0802 3.36328C11.7053 2.98833 11.1969 2.77743 10.6667 2.77686L8 2.77685C7.91245 2.77688 7.82575 2.75965 7.74485 2.72616C7.66396 2.69266 7.59046 2.64356 7.52855 2.58165C7.46664 2.51974 7.41753 2.44624 7.38404 2.36535C7.35055 2.28445 7.33332 2.19775 7.33335 2.1102ZM2.05144 7.85548C2.00122 7.97735 1.98814 8.11135 2.01384 8.24064C2.03953 8.36992 2.10287 8.48873 2.19588 8.58214L4.86197 11.2482C4.92387 11.3101 4.99735 11.3592 5.07823 11.3927C5.15911 11.4262 5.24579 11.4435 5.33333 11.4435C5.42087 11.4435 5.50755 11.4262 5.58843 11.3927C5.6693 11.3592 5.74279 11.3101 5.80469 11.2482C5.86659 11.1863 5.91569 11.1128 5.94919 11.032C5.98269 10.9511 5.99993 10.8644 5.99993 10.7769C5.99993 10.6893 5.98269 10.6026 5.94919 10.5218C5.91569 10.4409 5.86659 10.3674 5.80469 10.3055L4.27603 8.77685L9.33334 8.77686C9.51015 8.77686 9.67972 8.70662 9.80474 8.5816C9.92976 8.45657 10 8.28701 10 8.1102C10 7.93339 9.92976 7.76382 9.80474 7.6388C9.67972 7.51378 9.51015 7.44354 9.33334 7.44354L4.27603 7.44354L5.80469 5.91489C5.86659 5.85299 5.91569 5.7795 5.94919 5.69862C5.98269 5.61775 5.99993 5.53107 5.99993 5.44353C5.99993 5.35599 5.98269 5.2693 5.94919 5.18843C5.91569 5.10755 5.86659 5.03407 5.80469 4.97217C5.74279 4.91027 5.6693 4.86117 5.58843 4.82767C5.50755 4.79417 5.42087 4.77692 5.33333 4.77692C5.24579 4.77692 5.15911 4.79417 5.07823 4.82767C4.99736 4.86117 4.92387 4.91027 4.86197 4.97217L2.19588 7.63832C2.13388 7.70047 2.08479 7.77427 2.05144 7.85548Z" fill="#EE1D52" fill-opacity="0.8"/>
</svg>
