<svg width="17" height="16" viewBox="0 0 17 16" fill="none" xmlns="http://www.w3.org/2000/svg">
<g clip-path="url(#clip0_19697_1783)">
<path d="M7.76846 2.55889C7.70396 2.55889 7.64211 2.58451 7.5965 2.63012C7.55089 2.67572 7.52527 2.73758 7.52527 2.80208C7.52527 2.86658 7.55089 2.92843 7.5965 2.97404C7.64211 3.01964 7.70396 3.04527 7.76846 3.04527H8.86374C9.0989 3.04527 9.29021 2.85395 9.29021 2.61883V1.77608C9.29021 1.54092 9.0989 1.34961 8.86374 1.34961H3.8338C3.59865 1.34961 3.40733 1.54092 3.40733 1.77608V2.61886C3.40733 2.85398 3.59865 3.0453 3.8338 3.0453H6.6254C6.68989 3.0453 6.75175 3.01968 6.79736 2.97407C6.84296 2.92846 6.86858 2.86661 6.86858 2.80211C6.86858 2.73761 6.84296 2.67576 6.79736 2.63015C6.75175 2.58454 6.68989 2.55892 6.6254 2.55892H3.89374V1.83602H8.8038V2.55886L7.76846 2.55889ZM2.32036 4.29386C2.32036 4.3258 2.32665 4.35742 2.33887 4.38693C2.35109 4.41643 2.369 4.44325 2.39158 4.46583C2.41417 4.48841 2.44098 4.50632 2.47048 4.51854C2.49999 4.53076 2.53161 4.53705 2.56355 4.53705H10.1855C10.2174 4.53705 10.2491 4.53076 10.2786 4.51854C10.3081 4.50632 10.3349 4.48841 10.3575 4.46583C10.38 4.44325 10.398 4.41643 10.4102 4.38693C10.4224 4.35742 10.4287 4.3258 10.4287 4.29386C10.4287 4.26192 10.4224 4.2303 10.4102 4.20079C10.398 4.17128 10.38 4.14447 10.3575 4.12189C10.3349 4.09931 10.3081 4.0814 10.2786 4.06918C10.2491 4.05696 10.2174 4.05067 10.1855 4.05067H2.56355C2.53161 4.05066 2.49999 4.05695 2.47048 4.06917C2.44097 4.08139 2.41416 4.0993 2.39157 4.12188C2.36899 4.14447 2.35108 4.17128 2.33886 4.20079C2.32664 4.23029 2.32036 4.26192 2.32036 4.29386ZM2.56355 6.06723H10.1855C10.2174 6.06724 10.2491 6.06095 10.2786 6.04873C10.3081 6.03651 10.3349 6.0186 10.3575 5.99602C10.38 5.97343 10.398 5.94662 10.4102 5.91712C10.4224 5.88761 10.4287 5.85598 10.4287 5.82405C10.4287 5.79211 10.4224 5.76049 10.4102 5.73098C10.398 5.70147 10.38 5.67466 10.3575 5.65208C10.3349 5.6295 10.3081 5.61158 10.2786 5.59936C10.2491 5.58714 10.2174 5.58086 10.1855 5.58086H2.56355C2.49905 5.58086 2.4372 5.60648 2.39159 5.65209C2.34599 5.69769 2.32036 5.75955 2.32036 5.82405C2.32036 5.88854 2.34599 5.9504 2.39159 5.99601C2.4372 6.04161 2.49905 6.06723 2.56355 6.06723ZM8.68208 7.35427C8.68209 7.32233 8.6758 7.2907 8.66358 7.2612C8.65136 7.23169 8.63345 7.20488 8.61086 7.1823C8.58828 7.15971 8.56147 7.1418 8.53196 7.12958C8.50246 7.11736 8.47083 7.11107 8.4389 7.11108H2.56355C2.49905 7.11108 2.4372 7.1367 2.39159 7.18231C2.34599 7.22791 2.32036 7.28977 2.32036 7.35427C2.32036 7.41876 2.34599 7.48062 2.39159 7.52623C2.4372 7.57183 2.49905 7.59745 2.56355 7.59745H8.43886C8.50336 7.59745 8.56522 7.57183 8.61083 7.52623C8.65645 7.48062 8.68208 7.41877 8.68208 7.35427ZM5.60127 9.12764C5.66577 9.12764 5.72762 9.10202 5.77323 9.05641C5.81884 9.01081 5.84446 8.94895 5.84446 8.88445C5.84446 8.81996 5.81884 8.7581 5.77323 8.71249C5.72762 8.66689 5.66577 8.64127 5.60127 8.64127H2.56355C2.49905 8.64127 2.4372 8.66689 2.39159 8.71249C2.34599 8.7581 2.32036 8.81996 2.32036 8.88445C2.32036 8.94895 2.34599 9.01081 2.39159 9.05641C2.4372 9.10202 2.49905 9.12764 2.56355 9.12764H5.60127ZM2.27033 13.8565C2.39958 13.8935 2.53405 13.8185 2.57086 13.6893C2.57243 13.6839 2.73196 13.1489 3.35302 13.1489C3.65958 13.1489 3.80508 13.2693 4.00649 13.436C4.2379 13.6276 4.52593 13.866 5.08243 13.866C5.77633 13.866 6.14933 13.1323 6.1649 13.1011C6.22458 12.9812 6.1758 12.836 6.05611 12.7759C5.93643 12.7158 5.79043 12.7642 5.72983 12.8836C5.7273 12.8886 5.4738 13.3796 5.08243 13.3796C4.70111 13.3796 4.53143 13.2391 4.31661 13.0613C4.09074 12.8744 3.83477 12.6625 3.35299 12.6625C2.56561 12.6625 2.19108 13.247 2.10305 13.556C2.08538 13.618 2.09308 13.6845 2.12445 13.7409C2.15582 13.7973 2.2083 13.8388 2.27033 13.8565Z" fill="url(#paint0_linear_19697_1783)"/>
<path d="M16.1209 2.49712C16.109 2.46741 16.0914 2.44034 16.069 2.41746C16.0466 2.39458 16.0199 2.37635 15.9904 2.36381L15.4253 2.12337C15.4727 2.00356 15.4131 1.86134 15.2958 1.81066L15.1832 1.762L15.366 1.33862C15.5725 0.859469 15.3441 0.285094 14.8654 0.0783125C14.3871 -0.128312 13.8122 0.100156 13.6055 0.578313L13.4171 1.01441C13.2016 0.976844 12.9837 1.09525 12.8972 1.29556L12.3906 2.46866V1.22366C12.3906 0.548906 11.8416 0 11.1669 0H1.58269C0.908156 0 0.359375 0.548781 0.359375 1.22331V14.7767C0.359375 15.4512 0.908156 16 1.58269 16H11.1672C11.8418 16 12.3905 15.4512 12.3905 14.7767V11.3717C12.3905 11.3073 12.3649 11.2454 12.3193 11.1998C12.2737 11.1542 12.2118 11.1286 12.1473 11.1286C12.0828 11.1286 12.021 11.1542 11.9754 11.1998C11.9298 11.2454 11.9042 11.3073 11.9042 11.3717V14.7767C11.9042 15.183 11.5736 15.5136 11.1673 15.5136H1.58269C1.17634 15.5136 0.845781 15.183 0.845781 14.7767V1.22331C0.845781 0.816969 1.17638 0.486406 1.58269 0.486406H11.1669C11.5734 0.486406 11.9042 0.817125 11.9042 1.22366V3.59497L8.17647 12.2285C8.16331 12.259 8.15647 12.2918 8.15634 12.325L8.15919 14.3737C8.15956 14.8308 8.72484 15.0769 9.05944 14.7623L10.5522 13.3596C10.5729 13.3401 10.59 13.317 10.6027 13.2915C10.604 13.2889 10.6053 13.2863 10.6065 13.2837C10.6073 13.282 10.6082 13.2804 10.6089 13.2788L15.2328 2.57006L15.5753 2.71578L13.7664 6.92209C13.741 6.98134 13.7401 7.04829 13.7639 7.10821C13.7878 7.16812 13.8345 7.2161 13.8938 7.24158C13.953 7.26706 14.02 7.26796 14.0799 7.24408C14.1398 7.2202 14.1878 7.1735 14.2132 7.11425L16.1186 2.68369C16.1312 2.65428 16.1379 2.62266 16.1383 2.59064C16.1388 2.55863 16.1328 2.52685 16.1209 2.49712ZM14.5132 0.48725C14.8358 0.503812 15.0461 0.852125 14.9193 1.14591L14.7366 1.56909L13.8691 1.19459L14.052 0.77125C14.1303 0.590062 14.3153 0.476312 14.5132 0.48725ZM13.3404 1.49612L14.8797 2.16078L12.9238 6.69063L11.3842 6.02581L13.3404 1.49612ZM10.2588 12.8627L8.71947 12.198L11.1914 6.47241L12.731 7.13722L10.2588 12.8627ZM8.72628 14.4079C8.69631 14.436 8.64556 14.4145 8.64556 14.3732L8.64328 12.6949L9.94916 13.2588L8.72628 14.4079Z" fill="url(#paint1_linear_19697_1783)"/>
</g>
<defs>
<linearGradient id="paint0_linear_19697_1783" x1="2.09375" y1="7.6078" x2="10.4287" y2="7.6078" gradientUnits="userSpaceOnUse">
<stop stop-color="#6DA015"/>
<stop offset="1" stop-color="#46C0A2"/>
</linearGradient>
<linearGradient id="paint1_linear_19697_1783" x1="0.359375" y1="8" x2="16.1384" y2="8" gradientUnits="userSpaceOnUse">
<stop stop-color="#6DA015"/>
<stop offset="1" stop-color="#46C0A2"/>
</linearGradient>
<clipPath id="clip0_19697_1783">
<rect width="16" height="16" fill="white" transform="translate(0.25)"/>
</clipPath>
</defs>
</svg>
