<svg width="50" height="50" viewBox="0 0 50 50" fill="none" xmlns="http://www.w3.org/2000/svg">
<path d="M47.0492 18L42.2993 10.2889C41.7341 9.38431 40.9347 8.62737 39.9747 8.0878C39.0147 7.54822 37.925 7.24337 36.8061 7.20131C35.6871 7.15925 34.5748 7.38135 33.5717 7.84714C32.5685 8.31292 31.7068 9.00743 31.0658 9.86667L26.9572 3.2C26.0728 1.77033 24.6192 0.72676 22.9143 0.29777C21.2095 -0.131221 19.3925 0.0893215 17.8611 0.911111C16.9077 1.43775 16.1018 2.16897 15.5099 3.04444C14.7289 2.3894 13.7928 1.91719 12.7787 1.66667C11.9383 1.44542 11.0585 1.38648 10.1929 1.49345C9.32734 1.60042 8.49408 1.87106 7.74383 2.28889C6.98574 2.69436 6.32078 3.23604 5.78718 3.88279C5.25358 4.52953 4.86185 5.26858 4.63453 6.05746C4.4072 6.84633 4.34876 7.66947 4.46256 8.47955C4.57636 9.28963 4.86015 10.0707 5.29763 10.7778L6.10511 12.0667C5.11791 12.1455 4.16125 12.4262 3.30267 12.8889C1.78519 13.7199 0.679509 15.0777 0.225912 16.6672C-0.227686 18.2568 0.0074515 19.9496 0.880226 21.3778L10.855 37.5556C12.2057 39.8179 14.0235 41.8065 16.2028 43.4057C18.382 45.0049 20.8792 46.183 23.5493 46.8713C26.2193 47.5596 29.009 47.7445 31.7561 47.4152C34.5031 47.0859 37.1529 46.249 39.5513 44.9532C41.9497 43.6573 44.0489 41.9284 45.727 39.8668C47.405 37.8052 48.6284 35.4521 49.326 32.9442C50.0237 30.4363 50.1817 27.8237 49.7908 25.2583C49.3999 22.6928 48.468 20.2255 47.0492 18ZM45.458 31.9111C44.8873 33.943 43.8899 35.8481 42.5239 37.5154C41.1579 39.1828 39.4507 40.5788 37.5019 41.6222C33.5735 43.7422 28.9067 44.3175 24.5256 43.2218C20.1444 42.1261 16.4066 39.449 14.1324 35.7778L4.15766 19.6C3.77973 18.9871 3.67751 18.2587 3.87348 17.5753C4.06945 16.8918 4.54756 16.3092 5.20263 15.9556C5.8577 15.6019 6.63608 15.5063 7.36651 15.6897C8.09695 15.873 8.71962 16.3204 9.09755 16.9333L14.3224 25.4C14.4472 25.6028 14.6134 25.7807 14.8116 25.9234C15.0098 26.0661 15.2361 26.1709 15.4776 26.2317C15.7191 26.2926 15.971 26.3084 16.219 26.2782C16.467 26.2479 16.7062 26.1723 16.923 26.0556C17.1398 25.9388 17.3298 25.7833 17.4823 25.5978C17.6349 25.4124 17.7468 25.2006 17.8119 24.9747C17.877 24.7487 17.8938 24.513 17.8615 24.2809C17.8292 24.0489 17.7484 23.825 17.6236 23.6222L12.3987 15.1556L8.59881 9C8.22116 8.3879 8.11866 7.66056 8.31382 6.97778C8.4081 6.63782 8.5744 6.31905 8.80287 6.04038C9.03133 5.76172 9.3173 5.52883 9.64379 5.35556C10.298 5.00219 11.0753 4.90628 11.805 5.08889C12.531 5.28238 13.1509 5.72736 13.5387 6.33333L15.4149 9.42222H15.4387L21.6135 19.4222C21.7739 19.6963 22.0114 19.924 22.3003 20.0807C22.5892 20.2374 22.9184 20.3171 23.2522 20.3111C23.5875 20.3173 23.9175 20.2324 24.2022 20.0667C24.6357 19.8299 24.9514 19.4423 25.0804 18.9884C25.2095 18.5346 25.1413 18.0514 24.891 17.6444L18.7161 7.64444C18.3382 7.0315 18.2359 6.30318 18.4319 5.61972C18.6279 4.93625 19.106 4.35362 19.7611 4C20.4161 3.64638 21.1945 3.55073 21.9249 3.7341C22.6554 3.91747 23.2781 4.36483 23.656 4.97778L30.7808 16.5111L32.277 18.9556C30.2074 20.5672 28.8126 22.8111 28.339 25.2913C27.8654 27.7715 28.3433 30.3285 29.6884 32.5111C29.9598 32.8795 30.3697 33.1386 30.8363 33.2367C31.3029 33.3348 31.7918 33.2646 32.2056 33.0402C32.6193 32.8158 32.9274 32.4536 33.0683 32.026C33.2092 31.5984 33.1726 31.1368 32.9658 30.7333C31.9587 29.1006 31.6857 27.1606 32.2067 25.3396C32.7278 23.5186 34.0003 21.9657 35.7445 21.0222C35.964 20.9051 36.1566 20.7486 36.3115 20.5618C36.4663 20.375 36.5803 20.1614 36.647 19.9333C36.7629 19.4822 36.6952 19.0069 36.457 18.6L34.082 14.7333C33.807 14.2769 33.6818 13.7548 33.722 13.2323C33.7622 12.7097 33.966 12.2098 34.3081 11.7949C34.6501 11.3801 35.1151 11.0687 35.6451 10.8997C36.1751 10.7306 36.7466 10.7114 37.2882 10.8444C37.6452 10.9327 37.9801 11.0861 38.2735 11.2959C38.567 11.5056 38.8132 11.7676 38.9982 12.0667L43.7481 19.7778C44.8836 21.5912 45.6199 23.599 45.9135 25.6827C46.2072 27.7665 46.0523 29.8842 45.458 31.9111ZM15.5812 49.2444C15.4018 49.4769 15.1664 49.6664 14.894 49.7977C14.6217 49.929 14.3201 49.9983 14.0137 50C13.6253 49.9956 13.2464 49.8877 12.9212 49.6889C9.4669 47.4556 6.59358 44.524 4.5139 41.1111C4.3652 40.9093 4.26273 40.6808 4.21292 40.4401C4.16311 40.1995 4.16704 39.9517 4.22446 39.7125C4.28188 39.4733 4.39156 39.2478 4.54659 39.0502C4.70163 38.8526 4.89867 38.6871 5.12534 38.5641C5.35201 38.4412 5.60341 38.3634 5.86374 38.3357C6.12407 38.3081 6.3877 38.3311 6.63807 38.4033C6.88845 38.4756 7.12014 38.5955 7.31861 38.7555C7.51708 38.9156 7.67802 39.1123 7.79133 39.3333C9.60618 42.2878 12.1057 44.8241 15.1062 46.7556C15.5191 47.0287 15.8004 47.443 15.8893 47.9088C15.9782 48.3746 15.8675 48.8544 15.5812 49.2444ZM34.652 1.77778C34.652 1.30628 34.8522 0.854097 35.2085 0.520699C35.5648 0.187301 36.0481 0 36.552 0C39.0539 0.00299026 41.5112 0.620257 43.6783 1.79013C45.8455 2.96 47.6466 4.64151 48.9017 6.66667C49.0279 6.86878 49.1096 7.09246 49.1421 7.32457C49.1746 7.55667 49.1571 7.7925 49.0907 8.01819C49.0243 8.24388 48.9104 8.45487 48.7555 8.63875C48.6007 8.82262 48.4082 8.97567 48.1892 9.08889C47.9056 9.25705 47.5748 9.34216 47.2392 9.33333C46.9068 9.33224 46.5806 9.24957 46.293 9.09359C46.0055 8.93762 45.7667 8.71378 45.6005 8.44444C44.6835 6.9582 43.3645 5.72398 41.7762 4.86581C40.1878 4.00764 38.3861 3.55576 36.552 3.55556C36.0481 3.55556 35.5648 3.36825 35.2085 3.03486C34.8522 2.70146 34.652 2.24927 34.652 1.77778Z" fill="#FD9B29"/>
</svg>
